<?xml version="1.0" encoding="UTF-8"?>
<svg version="1.1" xmlns="http://www.w3.org/2000/svg" width="584" height="612">
<path d="M0 0 C192.72 0 385.44 0 584 0 C584 201.96 584 403.92 584 612 C391.28 612 198.56 612 0 612 C0 410.04 0 208.08 0 0 Z " fill="#251F21" transform="translate(0,0)"/>
<path d="M0 0 C1.90295456 2.85443184 2.92379965 5.30799906 4.125 8.5 C11.53299583 26.47846942 28.75740963 44.01948418 46 53 C46.87398437 53.47348877 46.87398437 53.47348877 47.765625 53.95654297 C67.83016349 64.80954156 88.34027323 69.03549484 111 64 C118.50338624 61.61998663 125.44424363 57.90502645 132.28125 54.05859375 C133.6276355 53.30147095 133.6276355 53.30147095 135.0012207 52.52905273 C136.76440189 51.52543519 138.51860538 50.50584414 140.26245117 49.46899414 C141.06658447 49.00485107 141.87071777 48.54070801 142.69921875 48.0625 C143.76402466 47.43021484 143.76402466 47.43021484 144.8503418 46.78515625 C147.63564643 45.76783204 149.20402724 46.09877829 152 47 C154.28125 49.1796875 154.28125 49.1796875 156.5 51.875 C159.50452636 55.61156479 159.50452636 55.61156479 163.45141602 58.1706543 C166.96860658 60.6952552 167.79515927 63.74434238 169.05859375 67.71484375 C169.32430176 68.50082947 169.59000977 69.28681519 169.86376953 70.09661865 C170.73983587 72.70458416 171.58916755 75.32039334 172.4375 77.9375 C173.04648717 79.77681985 173.65661469 81.6157625 174.26782227 83.4543457 C175.8763806 88.31186715 177.45972764 93.17727342 179.03808594 98.04467773 C179.98492367 100.95368045 180.94169062 103.85920491 181.90234375 106.76367188 C189.34169653 129.26604663 196.45557357 151.70643791 201 175 C201.28290894 176.44101074 201.28290894 176.44101074 201.5715332 177.91113281 C202.04651209 181.33531107 202.06183345 184.56743014 201.9921875 188.0234375 C201.9721942 189.38084571 201.95318673 190.73826872 201.93505859 192.09570312 C201.92464539 192.79574463 201.91423218 193.49578613 201.90350342 194.21704102 C201.74616509 206.12893356 201.90240924 217.41100373 205 229 C205.16628906 229.804375 205.33257812 230.60875 205.50390625 231.4375 C207.30196553 239.99043063 211.8418454 246.35570831 216.9765625 253.265625 C220.66899489 258.2553985 224.24474072 263.23709641 226.875 268.875 C229.87394313 275.13420496 234.20500742 281.00738169 238.93359375 286.0703125 C243.99632963 291.62299056 245.03573579 296.82121864 246.38085938 303.98681641 C249.74761108 320.78940131 262.08148817 337.98211801 275.109375 348.7421875 C280.0756979 352.89190026 283.33318186 356.78218103 286.484375 362.41796875 C294.79817172 376.58142141 306.98885381 384.16537566 322 390 C322 390.33 322 390.66 322 391 C215.74 391 109.48 391 0 391 C0 261.97 0 132.94 0 0 Z " fill="#FEFEFE" transform="translate(0,221)"/>
<path d="M0 0 C0.33 0 0.66 0 1 0 C1 128.7 1 257.4 1 390 C-82.49 390 -165.98 390 -252 390 C-250.515 388.02 -250.515 388.02 -249 386 C-248.61391249 383.39086127 -248.56254441 380.87699552 -248.50390625 378.2421875 C-248.33761719 377.50226563 -248.17132813 376.76234375 -248 376 C-246.02734375 374.8203125 -246.02734375 374.8203125 -244 374 C-242.87743869 371.75487738 -242.86586238 370.48543351 -242.875 368 C-242.87242187 367.29875 -242.86984375 366.5975 -242.8671875 365.875 C-242.88622764 363.90846225 -242.88622764 363.90846225 -244 362 C-244.039992 360.00039988 -244.04346799 357.99952758 -244 356 C-244.66 356 -245.32 356 -246 356 C-246.34075596 333.54796841 -243.85676553 312.77298959 -233.234375 292.65625 C-229.46117048 285.49033217 -227.20474731 279.19013591 -225.71875 271.23828125 C-223.76145076 262.41979717 -218.33219114 255.32363814 -213.18359375 248.078125 C-202.2413391 232.65326513 -200.45120103 214.98929871 -201 196.5 C-201.42788282 182.08442401 -199.73804744 169.00546711 -195.625 155.125 C-195.19114087 153.61335739 -194.75755546 152.1016362 -194.32421875 150.58984375 C-194.10556152 149.83558105 -193.8869043 149.08131836 -193.66162109 148.30419922 C-192.77204462 145.20610963 -191.92117799 142.09789429 -191.06933594 138.98925781 C-185.70852986 119.46001527 -185.70852986 119.46001527 -182.578125 111.21484375 C-180.8840691 106.74591373 -179.37474862 102.22466953 -177.875 97.6875 C-177.42821899 96.35996704 -177.42821899 96.35996704 -176.97241211 95.00561523 C-175.17268462 89.63871073 -173.46119201 84.25483349 -171.82421875 78.8359375 C-171.44861816 77.62848877 -171.07301758 76.42104004 -170.68603516 75.17700195 C-169.95107901 72.81258957 -169.23757475 70.44137491 -168.54833984 68.06323242 C-166.51318775 61.61477831 -164.74134241 57.75355025 -158.84594727 54.20654297 C-156.81290826 52.87771361 -155.76669179 51.53501607 -154.375 49.5625 C-153.59125 48.716875 -152.8075 47.87125 -152 47 C-147.49726661 47.27983089 -143.91341202 48.75938599 -139.875 50.6875 C-138.72902344 51.22632813 -137.58304687 51.76515625 -136.40234375 52.3203125 C-134.30930084 53.35361727 -132.23361429 54.4242302 -130.19140625 55.5546875 C-112.22237076 65.39305303 -91.08666777 67.94219007 -71.24609375 62.96484375 C-53.66474323 57.73909937 -38.35058874 49.53097551 -25 37 C-24.16855469 36.236875 -23.33710937 35.47375 -22.48046875 34.6875 C-12.1533724 24.8354149 -5.15469541 13.24804896 0 0 Z " fill="#FEFEFE" transform="translate(583,222)"/>
<path d="M0 0 C45.54 0 91.08 0 138 0 C138 68.64 138 137.28 138 208 C137.67 208 137.34 208 137 208 C136.67128906 206.80117188 136.67128906 206.80117188 136.3359375 205.578125 C131.57315632 189.08263895 124.78224781 176.70660114 109.85546875 167.70703125 C103.57459256 164.38044864 97.72041035 163.87339458 90.6328125 163.8671875 C89.9067128 163.86586823 89.1806131 163.86454895 88.43251038 163.8631897 C85.99663269 163.86124697 83.56086658 163.86772061 81.125 163.875 C80.26887115 163.87588623 79.41274231 163.87677246 78.53067017 163.87768555 C61.21947739 163.89823272 43.91547205 164.2269294 26.60821533 164.57119751 C4.069704 165.01665686 -18.45787846 165.11695705 -41 165 C-41.28361893 164.48123795 -41.56723785 163.96247589 -41.85945129 163.42799377 C-43.15921448 161.05547375 -44.46432088 158.68593362 -45.76953125 156.31640625 C-46.21558716 155.50030884 -46.66164307 154.68421143 -47.12121582 153.84338379 C-50.73592706 147.29513798 -54.77357739 141.5066839 -59.84375 135.99609375 C-64.79420526 130.30097255 -66.49904264 124.69306865 -68.078125 117.453125 C-69.38626046 112.55315999 -70.76015142 109.82656572 -75 107 C-76.58907352 100.35738638 -74.09887211 93.80116237 -71 88 C-68.88603589 84.8003315 -66.4816756 81.91988969 -64 79 C-62.77410156 77.48212891 -62.77410156 77.48212891 -61.5234375 75.93359375 C-47.79271589 59.06154482 -30.53120983 45.43665628 -12.55859375 33.30859375 C-11.09643433 32.32173584 -11.09643433 32.32173584 -9.60473633 31.31494141 C-7.65467715 30.00446329 -5.70023492 28.70047821 -3.7409668 27.40380859 C5.22462911 21.96557858 5.22462911 21.96557858 10.62109375 13.55078125 C10.56050781 12.81214844 10.49992187 12.07351563 10.4375 11.3125 C10.37369141 10.19294922 10.37369141 10.19294922 10.30859375 9.05078125 C10.03087751 6.80672877 10.03087751 6.80672877 9 4 C6.90280128 2.97718482 6.90280128 2.97718482 4.4375 2.3125 C3.61121094 2.06113281 2.78492188 1.80976562 1.93359375 1.55078125 C1.29550781 1.36902344 0.65742188 1.18726562 0 1 C0 0.67 0 0.34 0 0 Z " fill="#FEFEFE" transform="translate(446,0)"/>
<path d="M0 0 C45.54 0 91.08 0 138 0 C135.96153279 1.35897814 133.91973686 2.71297367 131.875 4.0625 C129.21312042 5.72314264 129.21312042 5.72314264 128 7 C127.41267054 10.11017647 127.45179607 12.88592241 128 16 C132.18454425 22.0431362 139.04927145 25.92906162 145.125 29.8125 C156.34425816 37.14371329 166.79647751 44.80174989 176.66015625 53.9140625 C178.92397097 55.9322212 181.25692339 57.75083918 183.6875 59.5625 C187.4025403 62.38958691 190.35129411 65.46276876 193.32421875 69.05078125 C194.9297647 70.9183044 196.6218461 72.52759068 198.4375 74.1875 C206.44608831 82.08761984 212.0164397 92.62329775 213.5 103.75 C212.84760898 107.99054162 211.06227058 109.08016061 208 112 C206.33845761 115.16251556 205.18023338 118.46949362 204.76171875 122.0234375 C203.95531002 128.49877921 200.50000678 132.5328746 196.4609375 137.40673828 C192.90290499 141.73467143 189.84679633 146.17514519 187 151 C186.63898193 151.61053223 186.27796387 152.22106445 185.90600586 152.85009766 C184.2808303 155.64787798 182.77898483 158.45903151 181.375 161.375 C180 164 180 164 178 165 C176.4316323 165.09135833 174.85935195 165.11895811 173.28833008 165.11523438 C171.79724983 165.114328 171.79724983 165.114328 170.27604675 165.11340332 C169.18077164 165.10691772 168.08549652 165.10043213 166.95703125 165.09375 C165.80483597 165.09016479 164.65264069 165.08657959 163.4655304 165.08288574 C150.7406568 165.02580955 138.01767647 164.81852391 125.29463482 164.60740948 C113.28429062 164.409046 101.27335407 164.24878766 89.26248074 164.08624935 C84.70519327 164.02433823 80.14800447 163.9573677 75.59082031 163.88818359 C70.27884932 163.80957634 64.96710151 163.75165647 59.6546936 163.71289062 C57.78431491 163.69618167 55.91398359 163.67244632 54.04379272 163.64111328 C41.77088943 163.44121377 32.05174788 164.39989794 22 172 C21.4225 172.5775 20.845 173.155 20.25 173.75 C19.8375 174.1625 19.425 174.575 19 175 C18.34 175 17.68 175 17 175 C16.6596875 175.804375 16.6596875 175.804375 16.3125 176.625 C15 179 15 179 12.75 181.5 C6.35443735 189.01194785 3.12878597 198.51383094 1 208 C0.67 208 0.34 208 0 208 C0 139.36 0 70.72 0 0 Z " fill="#FEFEFE" transform="translate(0,0)"/>
<path d="M0 0 C3 2 3 2 3.75 5.3125 C3.97707907 8.66191634 3.67436682 10.77538684 3 14 C2.17201985 19.88959467 1.72936551 24.87873154 4.8671875 30.1171875 C7.14170867 32.86898524 9.51786538 35.43567549 12 38 C16 42.68027211 16 42.68027211 16 45 C16.59619141 45.24226318 17.19238281 45.48452637 17.80664062 45.73413086 C20.43156792 47.24907387 21.45315158 48.71792949 23.09375 51.25390625 C23.92712891 52.5368457 23.92712891 52.5368457 24.77734375 53.84570312 C25.34582031 54.74224609 25.91429687 55.63878906 26.5 56.5625 C27.06847656 57.43197266 27.63695312 58.30144531 28.22265625 59.19726562 C31.315224 64.0083252 33.98464461 68.78839593 36.1887207 74.06860352 C36.94587251 75.87113975 37.81315273 77.62630546 38.6875 79.375 C40.17225619 83.4757552 40.40386598 87.07753622 40.68359375 91.3984375 C41.10368934 94.85255678 42.17775415 97.06856102 44 100 C50.50794666 100.35355042 55.20145896 100.08433034 61 97 C61.33 96.67 61.66 96.34 62 96 C70.87770971 95.18872104 77.659494 95.42720038 85.53515625 99.90625 C88.55975196 101.24838439 90.72211801 101.29920721 94 101 C97.07858016 99.42827019 97.07858016 99.42827019 99 96 C99.29044345 93.29318345 99.29044345 93.29318345 99.3125 90.25 C100.04673579 73.111391 113.27538799 55.13188902 124.1875 42.5625 C124.69410156 41.97887695 125.20070313 41.39525391 125.72265625 40.79394531 C127.86730985 38.35033149 130.03006852 35.96957654 132.31640625 33.65625 C136.61203263 29.00482427 137.42510789 25.74707006 137.5 19.375 C137.34138038 15.59192197 136.99453209 11.96475022 136.4140625 8.22265625 C136 5 136 5 136.875 2.0625 C139.31550321 -0.3062237 140.023623 -0.39611499 143.3125 -0.5625 C147.93024895 -0.26409942 150.48563285 0.86762928 154 4 C157.256089 7.73674976 160.13232964 11.71627459 162.90625 15.8203125 C167.27098824 22.17689557 171.3047145 26.21065439 178 30 C179.50425483 30.90966762 181.00450687 31.82599888 182.5 32.75 C183.47453125 33.33007812 183.47453125 33.33007812 184.46875 33.921875 C186 35 186 35 187 37 C187.203125 38.953125 187.203125 38.953125 187.25 41.25 C187.28867187 42.37148437 187.28867187 42.37148437 187.328125 43.515625 C186.73672533 47.99336537 184.98955574 51.09040836 181.6796875 54.1328125 C180.75414062 54.79023438 179.82859375 55.44765625 178.875 56.125 C177.81539062 56.88683594 176.75578125 57.64867187 175.6640625 58.43359375 C174.44328937 59.28989145 173.22189397 60.14530244 172 61 C170.56986941 62.01109232 169.14020203 63.02284005 167.7109375 64.03515625 C165.5240758 65.58261261 163.33573513 67.12755882 161.14013672 68.66259766 C156.35226106 72.01286348 151.65462294 75.46700108 147 79 C147.50193611 82.09642313 147.50193611 82.09642313 149.70703125 84.1328125 C150.40183594 84.46023438 151.09664062 84.78765625 151.8125 85.125 C156.46579398 87.78284229 157.4071911 90.78237658 159.08984375 95.69921875 C161.3566012 101.42934811 167.73876713 103.54562834 173 106 C173.1875 108.875 173.1875 108.875 173 112 C168.90342428 114.73105048 165.81477968 114.87213823 161 114 C158.04928628 112.57704653 155.33064187 110.98949279 152.578125 109.21484375 C149.53257403 107.77974322 148.15594016 108.00667351 145 109 C144.41497756 111.31208337 143.8319564 113.62464435 143.25 115.9375 C143.06880615 116.65389648 142.8876123 117.37029297 142.70092773 118.10839844 C141.75619896 121.87096167 140.84743095 125.63567159 140.01953125 129.42578125 C135.40840709 150.43306235 135.40840709 150.43306235 129.3125 156.8125 C123.33757377 158.95445469 117.59849111 157.92674579 111.8125 155.5 C104.65638918 151.4954693 100.66088611 144.30242474 98.1171875 136.75 C97.09983873 134.70881759 97.09983873 134.70881759 94.43017578 134.390625 C93.62821777 134.26171875 92.82625977 134.1328125 92 134 C92.68961744 168.85028249 92.68961744 168.85028249 103.89453125 201.12109375 C105.19258023 203.32731835 106.1447418 205.58972689 107 208 C107.66 208 108.32 208 109 208 C110.70179985 210.09035238 112.26956832 212.17125546 113.8125 214.375 C114.26318848 215.01622803 114.71387695 215.65745605 115.17822266 216.31811523 C127.07364243 233.52406714 131.50986932 253.49472503 128.5390625 274.21484375 C126.3535083 282.35281909 122.20012772 288.96584173 115 293.4375 C106.56395739 297.95591451 98.71605649 299.57084234 89.2109375 297.34765625 C82.40352487 294.9516938 78.58219815 291.23768406 74.87890625 285.16015625 C73.75099202 282.38799373 73.61120057 279.91997566 73.4375 276.9375 C73.23948365 273.66820969 73.03869566 271.11608697 72 268 C70.68 268 69.36 268 68 268 C67.87044922 269.485 67.87044922 269.485 67.73828125 271 C66.81477409 280.15280182 65.29120471 286.58959516 58.75 293.3125 C50.78660819 298.19912679 42.20663872 299.48055937 33.1015625 297.30859375 C24.69284728 294.55560343 19.28782385 290.91540778 15.1875 283 C14.41429142 281.35330322 13.68580455 279.68497297 13 278 C12.44892578 276.66582031 12.44892578 276.66582031 11.88671875 275.3046875 C7.39952791 258.58150051 11.87885085 238.87381736 20 224 C23.39404618 218.14407526 27.02816232 212.78154977 31.52734375 207.73046875 C40.09900924 197.65819338 43.46849899 186.88248231 45.1875 173.9375 C45.35475586 172.7319043 45.52201172 171.52630859 45.69433594 170.28417969 C47.27202416 158.22006075 47.81395436 146.15712019 48 134 C46.35 134 44.7 134 43 134 C42.731875 134.86496094 42.46375 135.72992188 42.1875 136.62109375 C39.51565417 144.22354982 36.25286189 151.42885337 28.8125 155.1875 C23.49373288 157.42389499 18.80823372 158.50949419 13 158 C3.43102889 151.68117785 1.88865177 138.5618308 -0.36791992 128.01489258 C-0.81916536 125.90635472 -1.2861681 123.80176441 -1.75585938 121.69726562 C-4 111.51490861 -4 111.51490861 -4 108 C-8.79946016 107.66319578 -11.23756698 108.40513313 -15.25 111 C-20.49446952 114.04193581 -24.97686885 115.22584274 -31 114 C-33 112 -33 112 -33.125 108.875 C-33.08375 107.92625 -33.0425 106.9775 -33 106 C-31.23084525 105.01780373 -29.45961431 104.03934641 -27.6875 103.0625 C-26.70136719 102.51722656 -25.71523437 101.97195313 -24.69921875 101.41015625 C-22 100 -22 100 -19 99 C-18.15434569 96.83193137 -18.15434569 96.83193137 -17.625 94.25 C-16.34834345 89.60217226 -14.98683886 86.94266678 -11 84 C-8.1875 83.1875 -8.1875 83.1875 -6 83 C-7.3466844 78.69356967 -8.92848925 76.91006931 -12.625 74.375 C-13.60597656 73.69179687 -14.58695313 73.00859375 -15.59765625 72.3046875 C-16.73093755 71.53522962 -17.86510907 70.76708181 -19 70 C-45.12660099 52.21930433 -45.12660099 52.21930433 -47 46 C-47.72000941 41.5738369 -47.77498036 38.16247054 -45.25 34.375 C-42.50343537 32.06663372 -39.32687668 30.52308325 -36.1875 28.8125 C-28.80237416 24.63121551 -24.85333202 19.16061175 -20.1328125 12.27734375 C-14.66581775 4.31148659 -10.39697375 -1.21469594 0 0 Z " fill="#FCFCFC" transform="translate(222,173)"/>
<path d="M0 0 C85.47 0 170.94 0 259 0 C255.55914557 2.29390295 252.54471746 2.73418873 248.5625 3.375 C235.66374543 5.66582577 225.09837954 10.15443982 214 17 C213.40364746 17.36287109 212.80729492 17.72574219 212.19287109 18.09960938 C183.07171227 35.89193674 158.81440305 62.27312875 148.17578125 95.06640625 C147.07585338 97.81074454 146.35064859 99.25717084 144 101 C143.34 101 142.68 101 142 101 C141.67 101.99 141.34 102.98 141 104 C139.22265625 105.71875 139.22265625 105.71875 137.0625 107.5 C134.49024808 109.62876021 132.87739237 111.18391145 131 114 C127.03794409 112.6793147 125.66846612 110.39589583 123.109375 107.203125 C121.24023884 105.25091612 119.7658249 104.20819578 117.5078125 102.81640625 C113.01668558 99.70193846 111.83003634 95.71392424 110.125 90.6875 C105.08073557 77.05952919 98.67101203 64.94056573 89 54 C88.29101562 53.18273438 87.58203125 52.36546875 86.8515625 51.5234375 C84.6054249 48.97781489 82.31775144 46.48053666 80 44 C79.22914063 43.175 78.45828125 42.35 77.6640625 41.5 C66.26774533 29.69798869 53.09693992 21.18588881 39 13 C37.64455078 12.19369141 37.64455078 12.19369141 36.26171875 11.37109375 C25.4566806 5.41805892 12.09997535 2.78567918 0 1 C0 0.67 0 0.34 0 0 Z " fill="#FDFDFD" transform="translate(162,0)"/>
<path d="M0 0 C2.57645856 -0.05269481 5.15266016 -0.08748038 7.72946167 -0.11859131 C8.53205414 -0.13709137 9.33464661 -0.15559143 10.16156006 -0.1746521 C15.60378316 -0.21527055 19.42838249 0.46043668 23.72164917 4.07672119 C36.58941573 17.78427883 36.58941573 17.78427883 36.95211792 26.86578369 C36.51615376 39.01828454 29.79725714 49.45950178 21.57711792 58.05328369 C20.91711792 58.05328369 20.25711792 58.05328369 19.57711792 58.05328369 C19.57711792 58.71328369 19.57711792 59.37328369 19.57711792 60.05328369 C17.49067647 61.89320036 15.40275636 63.6092488 13.20211792 65.30328369 C12.56161499 65.79836426 11.92111206 66.29344482 11.26119995 66.80352783 C-5.98141347 79.96327349 -24.11181949 84.49337019 -45.67190552 81.769104 C-53.44297409 80.34891362 -61.26173908 77.27942445 -66.42288208 71.05328369 C-66.42288208 69.73328369 -66.42288208 68.41328369 -66.42288208 67.05328369 C-61.30475258 67.47516855 -56.32291011 68.04062595 -51.29788208 69.11578369 C-34.20815026 72.32614292 -17.3049493 70.07378198 -2.42288208 61.05328369 C1.72765082 58.10251421 5.71171208 55.02060007 9.22164917 51.31890869 C10.57711792 50.05328369 10.57711792 50.05328369 12.57711792 50.05328369 C12.94450073 49.00914307 12.94450073 49.00914307 13.31930542 47.94390869 C14.77293007 44.60328061 16.66693581 41.82323133 18.70211792 38.80328369 C21.58650989 34.28182168 23.74652169 30.47560195 23.16305542 24.98297119 C21.67554657 20.08410871 18.23281669 17.28624847 14.01461792 14.74078369 C7.27926394 11.43433719 0.9805542 11.8618815 -6.42288208 11.86578369 C-7.67278931 11.86513916 -8.92269653 11.86449463 -10.21047974 11.86383057 C-19.37585237 11.91545986 -28.35405525 12.50400093 -37.44631958 13.61578369 C-40.78849126 14.02185676 -44.0522899 14.13888603 -47.42288208 14.05328369 C-44.76954788 19.24573571 -41.63132166 20.89495516 -36.60256958 23.52593994 C-34.42288208 25.05328369 -34.42288208 25.05328369 -33.61819458 27.23687744 C-33.55374146 27.8362915 -33.48928833 28.43570557 -33.42288208 29.05328369 C-40.00551218 29.55752416 -45.35629549 27.72224225 -51.54788208 25.61578369 C-53.48720806 24.96891472 -55.42728905 24.32430398 -57.36819458 23.68218994 C-58.64460815 23.25015259 -58.64460815 23.25015259 -59.94680786 22.80938721 C-62.42350771 22.05309265 -64.87675128 21.51748438 -67.42288208 21.05328369 C-67.42288208 21.71328369 -67.42288208 22.37328369 -67.42288208 23.05328369 C-68.08288208 23.05328369 -68.74288208 23.05328369 -69.42288208 23.05328369 C-69.17625017 24.99135864 -69.17625017 24.99135864 -68.42288208 27.05328369 C-65.90628717 28.64761203 -63.51719306 29.99546425 -60.86038208 31.30328369 C-59.79400513 31.84855713 -59.79400513 31.84855713 -58.70608521 32.40484619 C-56.95122832 33.29994098 -55.18782558 34.17824552 -53.42288208 35.05328369 C-53.75288208 36.37328369 -54.08288208 37.69328369 -54.42288208 39.05328369 C-60.52210151 37.85343725 -66.07274007 36.17015345 -71.84475708 33.85797119 C-74.51887204 33.02332319 -76.64016071 32.90313685 -79.42288208 33.05328369 C-79.75288208 34.70328369 -80.08288208 36.35328369 -80.42288208 38.05328369 C-79.63913208 38.34203369 -78.85538208 38.63078369 -78.04788208 38.92828369 C-75.42288208 40.05328369 -75.42288208 40.05328369 -73.42288208 42.05328369 C-73.42288208 43.04328369 -73.42288208 44.03328369 -73.42288208 45.05328369 C-76.87844639 44.56950469 -80.27104799 44.08832233 -83.67288208 43.30328369 C-84.58038208 43.22078369 -85.48788208 43.13828369 -86.42288208 43.05328369 C-88.04802676 44.51161728 -88.04802676 44.51161728 -89.42288208 46.05328369 C-91.50881958 45.64703369 -91.50881958 45.64703369 -93.42288208 45.05328369 C-93.69100708 43.77453369 -93.95913208 42.49578369 -94.23538208 41.17828369 C-97.59822137 26.35859883 -102.44884784 16.85022079 -114.42288208 7.05328369 C-114.09288208 5.73328369 -113.76288208 4.41328369 -113.42288208 3.05328369 C-108.54527941 2.91911456 -103.66767498 2.78500956 -98.79006958 2.65093994 C-98.03731499 2.63024759 -97.28456039 2.60955524 -96.50899506 2.58823586 C-87.3935603 2.33770047 -78.27811053 2.08772589 -69.16262817 1.83892822 C-68.33003038 1.81620094 -67.49743259 1.79347366 -66.63960457 1.77005768 C-63.30118122 1.67893692 -59.96275768 1.58782364 -56.62433243 1.49677277 C-47.93423628 1.25972436 -39.24418204 1.021545 -30.55432129 0.77598572 C-27.1275913 0.67935371 -23.70081256 0.58455222 -20.27401733 0.49026489 C-18.82652185 0.44996298 -17.37905075 0.40877217 -15.93161011 0.36654663 C-10.62148093 0.21182296 -5.31097375 0.11679821 0 0 Z " fill="#F8F8F8" transform="translate(525.4228820800781,183.94671630859375)"/>
<path d="M0 0 C0.95226786 0.0214785 1.90453571 0.042957 2.88566017 0.06508636 C4.92072108 0.113978 6.95553204 0.17443802 8.98993683 0.24557495 C12.07271102 0.35219689 15.15452458 0.42597676 18.23846436 0.48950195 C24.78810429 0.62997599 31.33595491 0.81849246 37.88427734 1.00976562 C40.27421318 1.07729621 42.66415679 1.14455167 45.05410767 1.21154785 C51.26487078 1.38637322 57.47552284 1.56486906 63.68615723 1.74420166 C70.05551831 1.92744331 76.4249801 2.10711385 82.79443359 2.28710938 C95.2333352 2.63913693 107.67212213 2.9950528 120.11083984 3.35351562 C120.44083984 4.67351562 120.77083984 5.99351562 121.11083984 7.35351562 C120.47017578 7.86398438 119.82951172 8.37445313 119.16943359 8.90039062 C108.29060027 18.04444725 103.66121508 27.28907746 101.71630859 41.08007812 C101.11083984 44.35351562 101.11083984 44.35351562 99.11083984 46.35351562 C98.12083984 46.35351562 97.13083984 46.35351562 96.11083984 46.35351562 C95.67771484 45.83789062 95.24458984 45.32226562 94.79833984 44.79101562 C94.24146484 44.31664062 93.68458984 43.84226563 93.11083984 43.35351562 C90.25565776 43.55035909 90.25565776 43.55035909 87.11083984 44.35351562 C84.7782649 44.69211521 82.44509773 45.02671952 80.11083984 45.35351562 C80.11083984 44.03351563 80.11083984 42.71351563 80.11083984 41.35351562 C82.11083984 40.02018229 84.11083984 38.68684896 86.11083984 37.35351562 C86.11083984 36.03351563 86.11083984 34.71351563 86.11083984 33.35351562 C79.03872426 33.71311472 73.52307533 35.58382716 67.02880859 38.39257812 C64.08881674 39.36076821 62.9280963 39.48587536 60.11083984 38.35351562 C60.17333984 36.57226562 60.17333984 36.57226562 61.11083984 34.35351562 C64.05415244 32.67582744 66.99178058 31.33594472 70.09521484 29.99804688 C73.86269087 28.40064128 73.86269087 28.40064128 76.04833984 25.13476562 C76.06896484 24.54695313 76.08958984 23.95914063 76.11083984 23.35351562 C68.9493791 21.45353624 63.53369744 23.5818431 56.79443359 26.02929688 C51.11286213 28.0717706 46.18477385 29.64980509 40.11083984 29.35351562 C40.11083984 28.03351563 40.11083984 26.71351563 40.11083984 25.35351562 C47.04083984 21.39351562 47.04083984 21.39351562 54.11083984 17.35351562 C54.11083984 16.69351563 54.11083984 16.03351563 54.11083984 15.35351562 C39.16361351 13.67267909 24.22777212 12.06272041 9.17333984 11.91601562 C7.66815796 11.88314453 7.66815796 11.88314453 6.13256836 11.84960938 C-1.14773888 11.86948565 -6.48047617 13.32640074 -11.98291016 18.21289062 C-12.44697266 18.83679688 -12.91103516 19.46070313 -13.38916016 20.10351562 C-13.87384766 20.71710938 -14.35853516 21.33070313 -14.85791016 21.96289062 C-16.64398013 26.10332557 -16.75223042 30.15467646 -15.11621094 34.32275391 C-14.06522307 36.2984501 -12.9209105 38.16479995 -11.70166016 40.04101562 C-11.31429687 40.67845703 -10.92693359 41.31589844 -10.52783203 41.97265625 C-8.05005364 45.94119718 -5.33533883 49.15151064 -1.88916016 52.35351562 C-1.27814453 52.93875 -0.66712891 53.52398437 -0.03759766 54.12695312 C15.09539525 67.79331235 29.74121509 71.10805902 49.62304688 70.51171875 C54.77926168 70.18382599 59.75560098 69.12634067 64.79052734 68.00976562 C67.68480893 67.43771938 70.17690457 67.21964786 73.11083984 67.35351562 C72.77963263 70.23209599 72.55074139 71.89973369 70.50146484 74.01367188 C56.22188833 83.36835795 39.5065699 84.65188969 22.83544922 81.99023438 C8.04065741 78.59761013 -4.36808537 67.70211378 -14.88916016 57.35351562 C-15.76314453 56.5053125 -16.63712891 55.65710938 -17.53759766 54.78320312 C-24.74952986 47.33167184 -29.79300173 37.74781285 -30.51416016 27.29101562 C-30.24846613 21.31289992 -27.34986595 17.06833039 -23.88916016 12.35351562 C-23.40962891 11.6909375 -22.93009766 11.02835938 -22.43603516 10.34570312 C-16.24948891 2.49354827 -9.89672671 -0.44177074 0 0 Z " fill="#F8F8F8" transform="translate(51.88916015625,183.646484375)"/>
<path d="M0 0 C1.97187383 1.03715442 3.93101306 2.09897325 5.875 3.1875 C7.87128088 4.19490392 9.87026363 5.19702936 11.875 6.1875 C12.72869742 23.64086955 10.17893629 37.12112575 0.875 52.1875 C0.47522949 52.84379395 0.07545898 53.50008789 -0.33642578 54.17626953 C-8.49231351 67.55481351 -8.49231351 67.55481351 -11.125 70.1875 C-14.34597637 70.7243294 -16.06484611 70.99280366 -19.125 70.1875 C-21.81462984 67.97721013 -23.37709067 65.16768541 -25.125 62.1875 C-25.764375 61.12273437 -26.40375 60.05796875 -27.0625 58.9609375 C-29.16009685 55.410966 -31.14837212 51.80578524 -33.125 48.1875 C-33.98544922 46.64642578 -33.98544922 46.64642578 -34.86328125 45.07421875 C-38.64999468 37.98000376 -40.69914125 31.08614199 -42.125 23.1875 C-42.31320312 22.18203125 -42.50140625 21.1765625 -42.6953125 20.140625 C-43.32552678 15.80933414 -43.18397986 11.55200945 -43.125 7.1875 C-40.35616804 5.70456418 -37.5846027 4.22681138 -34.8125 2.75 C-34.02681641 2.32912109 -33.24113281 1.90824219 -32.43164062 1.47460938 C-31.67431641 1.07177734 -30.91699219 0.66894531 -30.13671875 0.25390625 C-29.44022217 -0.11790771 -28.74372559 -0.48972168 -28.02612305 -0.87280273 C-19.51370927 -5.08036413 -8.34030338 -3.88189235 0 0 Z " fill="#FCFCFC" transform="translate(307.125,152.8125)"/>
<path d="M0 0 C-0.62331462 3.66197342 -1.64622692 7.10041819 -2.81567383 10.62304688 C-5.06518495 17.40929949 -6.80943362 23.79312616 -7 31 C-7.99 30.67 -8.98 30.34 -10 30 C-10.495 28.515 -10.495 28.515 -11 27 C-11.99 26.67 -12.98 26.34 -14 26 C-15.6120509 32.76485645 -16.26618595 39.04958914 -16 46 C-20.04758827 44.12659396 -22.78427297 41.89967957 -25 38 C-26.26979038 34.04954105 -27.19041313 30.06768036 -28 26 C-29.32 26 -30.64 26 -32 26 C-32.66 30.29 -33.32 34.58 -34 39 C-44.82037306 33.58981347 -52.12276405 18.72991909 -57 8 C-57 7.34 -57 6.68 -57 6 C-55.0830014 6.31045732 -53.16641277 6.62344671 -51.25 6.9375 C-49.64898437 7.19853516 -49.64898437 7.19853516 -48.015625 7.46484375 C-45 8 -45 8 -42.94140625 8.546875 C-30.54026622 11.44130607 -16.77937387 7.10492595 -6.05078125 0.953125 C-4 0 -4 0 0 0 Z " fill="#F9F9F9" transform="translate(327,520)"/>
<path d="M0 0 C5.52173205 0.25098782 7.21715925 2.21715925 11 6 C20.98873567 11.72133631 34.73457529 13.06777161 46.00195312 10.55322266 C51.41188273 8.93499914 56.08012679 7.10023547 60 3 C60.66 3 61.32 3 62 3 C62 2.34 62 1.68 62 1 C64.3125 0.3125 64.3125 0.3125 67 0 C68.875 1.1875 68.875 1.1875 70 3 C69.53161203 7.86716191 66.03956883 10.05370252 62.5234375 13.04296875 C58.87572309 15.87192373 55.18316143 18.06028323 51 20 C50.15695312 20.39316406 49.31390625 20.78632813 48.4453125 21.19140625 C36.72204271 26.06760687 25.57740705 24.73759683 14 20 C11.05372083 18.51354891 8.66245264 16.98378824 6 15 C6 14.34 6 13.68 6 13 C5.401875 12.7525 4.80375 12.505 4.1875 12.25 C1.58679257 10.76388147 0.45583423 9.62050161 -1 7 C-1.25 3.8125 -1.25 3.8125 -1 1 C-0.67 0.67 -0.34 0.34 0 0 Z " fill="#F6F5F6" transform="translate(258,484)"/>
<path d="M0 0 C1.32 0 2.64 0 4 0 C4.33 1.65 4.66 3.3 5 5 C5.99 4.34 6.98 3.68 8 3 C10.2265625 2.76953125 10.2265625 2.76953125 12.625 2.8125 C13.42164063 2.81894531 14.21828125 2.82539063 15.0390625 2.83203125 C17 3 17 3 18 4 C18.203125 6.14453125 18.203125 6.14453125 18.25 8.8125 C18.27578125 9.68519531 18.3015625 10.55789063 18.328125 11.45703125 C17.94334919 14.43904377 16.96899223 15.7771114 15 18 C15.66 19.32 16.32 20.64 17 22 C12.63657789 24.16027971 8.58654293 24.31064453 3.8125 24.25 C3.05799561 24.24395752 2.30349121 24.23791504 1.52612305 24.23168945 C-6.51619109 24.08935524 -14.00726586 23.30322101 -21 19 C-21.33 18.34 -21.66 17.68 -22 17 C-21.34 17 -20.68 17 -20 17 C-19.67 16.01 -19.34 15.02 -19 14 C-18.01 14 -17.02 14 -16 14 C-15.93941406 13.28972656 -15.87882812 12.57945312 -15.81640625 11.84765625 C-15.73261719 10.92855469 -15.64882813 10.00945312 -15.5625 9.0625 C-15.48128906 8.14597656 -15.40007812 7.22945313 -15.31640625 6.28515625 C-15 4 -15 4 -14 3 C-12.37649507 2.92726232 -10.74999532 2.91630441 -9.125 2.9375 C-7.79855469 2.95103516 -7.79855469 2.95103516 -6.4453125 2.96484375 C-5.63835937 2.97644531 -4.83140625 2.98804688 -4 3 C-3.01 3 -2.02 3 -1 3 C-0.67 2.01 -0.34 1.02 0 0 Z " fill="#231F20" transform="translate(290,472)"/>
<path d="M0 0 C1.65 0.33 3.3 0.66 5 1 C5.15855469 1.88042969 5.31710937 2.76085937 5.48046875 3.66796875 C5.71378906 4.82941406 5.94710938 5.99085938 6.1875 7.1875 C6.40792969 8.33605469 6.62835938 9.48460937 6.85546875 10.66796875 C8.42161229 15.22742418 10.57511146 17.80470079 14.95092773 19.96166992 C17.91401709 21.17697721 20.918066 22.25042364 23.9375 23.31640625 C27.5056316 24.66228045 29.56937483 25.46632639 32.0078125 28.48828125 C33.31186692 31.78948989 33.26537127 34.48383073 33 38 C32.505 38.99 32.505 38.99 32 40 C28.65968918 39.42033652 27.1552997 38.4064313 24.8125 36 C20.08672333 31.79707522 15.48774742 31.8232736 9.37890625 32.1328125 C2.61327193 32.43440095 2.61327193 32.43440095 -1 29.875 C-5.4665292 23.45436428 -6.00744316 16.65852421 -5 9 C-3.67910067 5.72766751 -2.03456298 2.87745336 0 0 Z " fill="#282425" transform="translate(257,395)"/>
<path d="M0 0 C1.32 0 2.64 0 4 0 C9.28172147 6.63987842 9.63759776 12.75677183 9 21 C8.17553797 24.71007912 7.02975431 27.88190893 4.40625 30.73046875 C0.89723326 32.58181687 -2.41176117 32.06069062 -6.25 31.8125 C-12.71432831 31.57830505 -16.79860296 31.91656613 -21.75 36.4921875 C-23.09186753 37.99494103 -23.09186753 37.99494103 -24 40 C-25.32 40 -26.64 40 -28 40 C-29.57898053 36.84203893 -29.81928171 33.39329364 -29 30 C-24.72756135 24.53564329 -19.43938345 22.92851177 -13.15039062 20.68359375 C-8.49553073 18.92007855 -5.61045277 17.46677474 -3 13 C-1.89100811 9.67395821 -1.89100811 9.67395821 -1.25 6.1875 C-1.00765625 5.02605469 -0.7653125 3.86460937 -0.515625 2.66796875 C-0.34546875 1.78753906 -0.1753125 0.90710938 0 0 Z " fill="#292526" transform="translate(323,395)"/>
<path d="M0 0 C0.88429688 -0.01417969 1.76859375 -0.02835937 2.6796875 -0.04296875 C5.125 0.1875 5.125 0.1875 8.125 2.1875 C8.453125 4.28125 8.453125 4.28125 8.375 6.6875 C8.35953125 7.4815625 8.3440625 8.275625 8.328125 9.09375 C8.125 11.1875 8.125 11.1875 7.125 13.1875 C5.68844146 13.26881463 4.2505517 13.32683559 2.8125 13.375 C1.61173828 13.42720703 1.61173828 13.42720703 0.38671875 13.48046875 C-1.875 13.1875 -1.875 13.1875 -3.62109375 11.96484375 C-5.17051967 9.76861698 -5.39926194 8.22794554 -5.625 5.5625 C-5.70234375 4.76585937 -5.7796875 3.96921875 -5.859375 3.1484375 C-5.86453125 2.50132812 -5.8696875 1.85421875 -5.875 1.1875 C-4.21846314 -0.46903686 -2.26849204 0.01643835 0 0 Z " fill="#EEEEEE" transform="translate(280.875,474.8125)"/>
<path d="M0 0 C1.32 0 2.64 0 4 0 C4.433125 0.825 4.86625 1.65 5.3125 2.5 C6.1478125 3.7375 6.1478125 3.7375 7 5 C10.45728358 5.75011367 10.45728358 5.75011367 14 5 C16.44098818 3.14579161 16.44098818 3.14579161 18 1 C18.99 1.33 19.98 1.66 21 2 C20.52048204 6.31566167 19.29764982 8.2019941 16 11 C12.2555248 12.8722376 8.06724564 12.66937428 4 12 C1.22042199 10.26125964 0.62295629 9.02205653 -1 6 C-0.8125 2.625 -0.8125 2.625 0 0 Z " fill="#F0F0F0" transform="translate(170,254)"/>
<path d="M0 0 C2.475 0.495 2.475 0.495 5 1 C4.7716978 4.95723818 4.54977482 7.32996194 2 10.4375 C-2.09888087 12.57233378 -5.46648705 12.68290667 -10 12 C-13.03855354 10.70699849 -14.4781857 9.73528378 -16.375 7.0625 C-17.10948624 4.6386954 -16.84172676 3.35683494 -16 1 C-13.53199953 2.15173355 -11.95216435 3.04783565 -10 5 C-6.54230809 5.58342353 -6.54230809 5.58342353 -3 5 C-0.99135641 2.6273026 -0.99135641 2.6273026 0 0 Z " fill="#EDECEC" transform="translate(410,254)"/>
<path d="M0 0 C1.65 0 3.3 0 5 0 C5 8.25 5 16.5 5 25 C4.67 25 4.34 25 4 25 C3.67 21.7 3.34 18.4 3 15 C2.34 16.32 1.68 17.64 1 19 C0.01 19 -0.98 19 -2 19 C-2.99 19.33 -3.98 19.66 -5 20 C-4.443125 18.63875 -4.443125 18.63875 -3.875 17.25 C-3.58625 16.1775 -3.2975 15.105 -3 14 C-3.3609375 13.38125 -3.721875 12.7625 -4.09375 12.125 C-5 10 -5 10 -4.1015625 7.421875 C-3.61429687 6.54015625 -3.12703125 5.6584375 -2.625 4.75 C-2.14289063 3.85796875 -1.66078125 2.9659375 -1.1640625 2.046875 C-0.77992188 1.37140625 -0.39578125 0.6959375 0 0 Z " fill="#2E2B2C" transform="translate(265,307)"/>
<path d="M0 0 C0.79664063 0.00644531 1.59328125 0.01289063 2.4140625 0.01953125 C4.375 0.1875 4.375 0.1875 5.375 1.1875 C5.84780256 8.51593968 5.84780256 8.51593968 4.1484375 10.9296875 C1.87304705 12.54351068 0.51450791 12.52754912 -2.25 12.4375 C-3.44496094 12.41429687 -3.44496094 12.41429687 -4.6640625 12.390625 C-6.625 12.1875 -6.625 12.1875 -7.625 11.1875 C-7.828125 9.19140625 -7.828125 9.19140625 -7.875 6.75 C-7.90078125 5.94691406 -7.9265625 5.14382813 -7.953125 4.31640625 C-7.84484375 3.61386719 -7.7365625 2.91132813 -7.625 2.1875 C-4.45557116 0.07454744 -3.62870047 -0.06500929 0 0 Z " fill="#F1F0F1" transform="translate(302.625,474.8125)"/>
<path d="M0 0 C2.5625 1.25 2.5625 1.25 5 3 C6.1671568 6.50147041 6.13357453 9.32670036 6 13 C5.67 13.66 5.34 14.32 5 15 C1.69289753 14.4189256 0.15520773 13.42834558 -2.1875 11.0625 C-6.07605413 7.53744115 -9.88668107 6.67249999 -15 6 C-12.18372735 4.51470552 -9.40632675 3.40569968 -6.375 2.4375 C-4.14572799 1.72279984 -2.09445062 1.04722531 0 0 Z " fill="#302B2D" transform="translate(284,420)"/>
<path d="M0 0 C0 0.33 0 0.66 0 1 C-1.1446875 1.1546875 -1.1446875 1.1546875 -2.3125 1.3125 C-5.24342658 2.06227192 -6.01517162 2.83473267 -8 5 C-8.99 5.33 -9.98 5.66 -11 6 C-10.67 6.66 -10.34 7.32 -10 8 C-11.32 8 -12.64 8 -14 8 C-13.01 8.66 -12.02 9.32 -11 10 C-10.3125 13.625 -10.3125 13.625 -10 17 C-10.639375 16.29875 -11.27875 15.5975 -11.9375 14.875 C-14.9473025 11.81315481 -18.43966037 9.72066657 -22.109375 7.52734375 C-24.34236088 5.72342334 -24.45208815 4.73290302 -25 2 C-22.14633646 1.66178803 -19.29219404 1.3293022 -16.4375 1 C-15.63763672 0.90460938 -14.83777344 0.80921875 -14.01367188 0.7109375 C-9.30547833 0.17285824 -4.73852735 -0.10176703 0 0 Z " fill="#312D2E" transform="translate(503,196)"/>
<path d="M0 0 C1.65 0 3.3 0 5 0 C6.03046722 1.78614318 7.04913236 3.57910018 8.0625 5.375 C8.63097656 6.37273437 9.19945312 7.37046875 9.78515625 8.3984375 C10.38650391 9.68621094 10.38650391 9.68621094 11 11 C10.67 11.66 10.34 12.32 10 13 C9.34 12.67 8.68 12.34 8 12 C7.67 12.66 7.34 13.32 7 14 C6.34 14 5.68 14 5 14 C4.67 16.31 4.34 18.62 4 21 C3.67 21 3.34 21 3 21 C2.67 19.35 2.34 17.7 2 16 C1.67 17.65 1.34 19.3 1 21 C0.67 21 0.34 21 0 21 C0 14.07 0 7.14 0 0 Z " fill="#312F30" transform="translate(314,307)"/>
<path d="M0 0 C2.125 0.9375 2.125 0.9375 4 2 C3.34 2.66 2.68 3.32 2 4 C2.66 4.66 3.32 5.32 4 6 C4.33 6.99 4.66 7.98 5 9 C3.47005208 10.23697917 1.94010417 11.47395833 0.41015625 12.7109375 C-1.13266437 13.9666391 -1.13266437 13.9666391 -2 16 C-3.32 16 -4.64 16 -6 16 C-7.60847182 12.78305636 -7.61309149 9.47862778 -7 6 C-4.82425584 3.30894802 -3.08934144 1.54467072 0 0 Z " fill="#2B2829" transform="translate(301,419)"/>
<path d="M0 0 C1.89492187 0.15275391 1.89492187 0.15275391 3.828125 0.30859375 C4.79234375 0.39238281 5.7565625 0.47617188 6.75 0.5625 C6.75 1.8825 6.75 3.2025 6.75 4.5625 C4.1953125 6.484375 4.1953125 6.484375 0.875 8.3125 C-0.21554688 8.92609375 -1.30609375 9.5396875 -2.4296875 10.171875 C-5.25 11.5625 -5.25 11.5625 -7.25 11.5625 C-6.92 10.5725 -6.59 9.5825 -6.25 8.5625 C-5.59 8.5625 -4.93 8.5625 -4.25 8.5625 C-4.91 8.2325 -5.57 7.9025 -6.25 7.5625 C-6.25 6.5725 -6.25 5.5825 -6.25 4.5625 C-6.91 4.2325 -7.57 3.9025 -8.25 3.5625 C-8.25 2.9025 -8.25 2.2425 -8.25 1.5625 C-9.24 1.2325 -10.23 0.9025 -11.25 0.5625 C-7.43483536 -0.73812431 -3.97438237 -0.33119853 0 0 Z " fill="#2B2728" transform="translate(99.25,197.4375)"/>
<path d="M0 0 C3.87671127 2.58447418 3.80786195 4.62882714 5 9 C5.66 9.33 6.32 9.66 7 10 C7.33 10.99 7.66 11.98 8 13 C8.33 13.66 8.66 14.32 9 15 C11.31 15 13.62 15 16 15 C16.33 17.31 16.66 19.62 17 22 C17.66 21.34 18.32 20.68 19 20 C18.74438677 22.3431213 18.40729228 24.67843403 18 27 C17.34 27.33 16.68 27.66 16 28 C15.731875 27.50371094 15.46375 27.00742187 15.1875 26.49609375 C11.92424838 20.83907531 8.01360144 17.11345588 3 13 C0.5 10.6875 0.5 10.6875 -1 9 C-1 8.34 -1 7.68 -1 7 C-0.34 6.67 0.32 6.34 1 6 C0.67 4.02 0.34 2.04 0 0 Z " fill="#272324" transform="translate(268,554)"/>
<path d="M0 0 C0.66 1.32 1.32 2.64 2 4 C-3.75 9 -3.75 9 -6 9 C-6.33 9.99 -6.66 10.98 -7 12 C-7.33 9.36 -7.66 6.72 -8 4 C-8.66 4.66 -9.32 5.32 -10 6 C-10.99 6 -11.98 6 -13 6 C-13.33 5.01 -13.66 4.02 -14 3 C-9.07015675 0.96006486 -5.42039575 -0.40652968 0 0 Z " fill="#333132" transform="translate(138,216)"/>
<path d="M0 0 C0 3 0 3 -2 6 C-1.34 7.32 -0.68 8.64 0 10 C-2.50301771 11.18198059 -4.39601183 12.0172568 -7.1875 11.9375 C-9 11 -9 11 -10.1875 8.6875 C-10.85893456 6.46660109 -11.44776191 4.25217099 -12 2 C-11.30132812 2.02320313 -10.60265625 2.04640625 -9.8828125 2.0703125 C-8.51769531 2.09738281 -8.51769531 2.09738281 -7.125 2.125 C-6.22007812 2.14820313 -5.31515625 2.17140625 -4.3828125 2.1953125 C-1.81193006 2.24324836 -1.81193006 2.24324836 0 0 Z " fill="#373334" transform="translate(307,484)"/>
<path d="M0 0 C7.75 0.875 7.75 0.875 10 2 C10 2.66 10 3.32 10 4 C10.66 4.33 11.32 4.66 12 5 C12 5.66 12 6.32 12 7 C11.01 7 10.02 7 9 7 C9.33 8.32 9.66 9.64 10 11 C9.01 11 8.02 11 7 11 C6.67 9.35 6.34 7.7 6 6 C5.236875 6.226875 4.47375 6.45375 3.6875 6.6875 C2.800625 6.790625 1.91375 6.89375 1 7 C-0.8125 5.5625 -0.8125 5.5625 -2 4 C-1.34 2.68 -0.68 1.36 0 0 Z " fill="#1E1C1D" transform="translate(446,216)"/>
<path d="M0 0 C2 3 2 3 2 5 C4.97 5.33 7.94 5.66 11 6 C11 6.33 11 6.66 11 7 C9.02 7.33 7.04 7.66 5 8 C4.67 8.99 4.34 9.98 4 11 C2.3125 11.875 2.3125 11.875 0 12 C-5.66666667 9.66666667 -5.66666667 9.66666667 -7 7 C-6.34 7 -5.68 7 -5 7 C-4.67 6.01 -4.34 5.02 -4 4 C-3.01 4 -2.02 4 -1 4 C-0.67 2.68 -0.34 1.36 0 0 Z " fill="#393637" transform="translate(275,482)"/>
<path d="M0 0 C0.33 0 0.66 0 1 0 C2.00926479 4.15626368 2.10239579 8.04365094 2.0625 12.3125 C2.05347656 13.56675781 2.04445313 14.82101563 2.03515625 16.11328125 C2.01775391 17.54220703 2.01775391 17.54220703 2 19 C1.34 18.34 0.68 17.68 0 17 C-0.99 17.33 -1.98 17.66 -3 18 C-3 16.35 -3 14.7 -3 13 C-2.34 12.67 -1.68 12.34 -1 12 C-1 11.34 -1 10.68 -1 10 C-1.66 10 -2.32 10 -3 10 C-3.33 8.35 -3.66 6.7 -4 5 C-3.34 5 -2.68 5 -2 5 C-1.34 3.35 -0.68 1.7 0 0 Z " fill="#282325" transform="translate(582,203)"/>
<path d="M0 0 C1.32 0.66 2.64 1.32 4 2 C3.67 3.98 3.34 5.96 3 8 C2.01 8 1.02 8 0 8 C-1.11375 9.175625 -1.11375 9.175625 -2.25 10.375 C-5.57487246 13.54874189 -7.59300639 14.04947197 -12 15 C-12.33 14.34 -12.66 13.68 -13 13 C-12.39671875 12.64808594 -11.7934375 12.29617188 -11.171875 11.93359375 C-5.68722097 8.54549296 -2.70101278 5.87176691 0 0 Z " fill="#343233" transform="translate(347,454)"/>
<path d="M0 0 C3 2 3 2 4 5 C4.2295082 11.54098361 4.2295082 11.54098361 3 14 C-0.79588866 13.45773019 -2.47211993 11.79872437 -5 9 C-4.34 8.67 -3.68 8.34 -3 8 C-1.96854629 6.69084721 -0.96457834 5.35917857 0 4 C-0.33 3.34 -0.66 2.68 -1 2 C-0.67 1.34 -0.34 0.68 0 0 Z " fill="#292728" transform="translate(286,421)"/>
<path d="M0 0 C5.22363541 0.24295979 8.66544943 2.31257865 13 5 C13 5.33 13 5.66 13 6 C10.36 6.66 7.72 7.32 5 8 C4.34 7.01 3.68 6.02 3 5 C2.01 4.67 1.02 4.34 0 4 C-0.33 4.99 -0.66 5.98 -1 7 C-1.66 7 -2.32 7 -3 7 C-2.25 2.25 -2.25 2.25 0 0 Z " fill="#2C2A2B" transform="translate(368,280)"/>
<path d="M0 0 C6.72253472 3.17180135 12.91805372 6.72500877 19 11 C18.01 11.66 17.02 12.32 16 13 C15.7525 12.360625 15.505 11.72125 15.25 11.0625 C14.18437567 8.81258459 14.18437567 8.81258459 11.875 8.25 C11.25625 8.1675 10.6375 8.085 10 8 C10 8.66 10 9.32 10 10 C10.66 10.33 11.32 10.66 12 11 C10.68 10.67 9.36 10.34 8 10 C8 9.01 8 8.02 8 7 C7.34 7 6.68 7 6 7 C6 6.34 6 5.68 6 5 C4.02 5.33 2.04 5.66 0 6 C0 4.02 0 2.04 0 0 Z " fill="#323031" transform="translate(195,9)"/>
<path d="M0 0 C0 2.31 0 4.62 0 7 C-3.3 6.67 -6.6 6.34 -10 6 C-11 2 -11 2 -10 0 C-2.58823529 -1.29411765 -2.58823529 -1.29411765 0 0 Z " fill="#292728" transform="translate(288,489)"/>
<path d="M0 0 C4.29 0 8.58 0 13 0 C11.515 2.475 11.515 2.475 10 5 C9.01 5 8.02 5 7 5 C7.66 5.66 8.32 6.32 9 7 C8.01 7.495 8.01 7.495 7 8 C4.0625 6.25 4.0625 6.25 1 4 C0.67 2.68 0.34 1.36 0 0 Z " fill="#2A2627" transform="translate(478,198)"/>
<path d="M0 0 C1.67588141 2.51382212 2.94030311 4.82947288 4.1875 7.5625 C4.55230469 8.34753906 4.91710937 9.13257813 5.29296875 9.94140625 C5.52628906 10.62074219 5.75960938 11.30007812 6 12 C5.67 12.66 5.34 13.32 5 14 C2.69 14 0.38 14 -2 14 C-1.85866501 12.22880197 -1.71176792 10.45804713 -1.5625 8.6875 C-1.48128906 7.70136719 -1.40007812 6.71523437 -1.31640625 5.69921875 C-1 3 -1 3 0 0 Z " fill="#2E2C2D" transform="translate(267,186)"/>
<path d="M0 0 C0.66 0.33 1.32 0.66 2 1 C2 1.66 2 2.32 2 3 C3.32 2.67 4.64 2.34 6 2 C7.625 3.625 7.625 3.625 9 6 C8.3125 9.1875 8.3125 9.1875 7 12 C6.01 12.495 6.01 12.495 5 13 C3.02 9.04 1.04 5.08 -1 1 C-0.67 0.67 -0.34 0.34 0 0 Z " fill="#2D292A" transform="translate(223,481)"/>
<path d="M0 0 C0.14695313 0.66386719 0.29390625 1.32773438 0.4453125 2.01171875 C2.04735782 8.31862129 3.55916436 11.37277624 9 15 C7.68 15.99 6.36 16.98 5 18 C3.68 17.34 2.36 16.68 1 16 C1.33 15.01 1.66 14.02 2 13 C1.01230568 11.24763912 0.01814719 9.49529422 -1.08984375 7.81640625 C-2 6 -2 6 -2 2 C-2.66 1.67 -3.32 1.34 -4 1 C-1 0 -1 0 0 0 Z " fill="#282627" transform="translate(175,214)"/>
<path d="M0 0 C3.87671127 2.58447418 3.80786195 4.62882714 5 9 C5.66 9.33 6.32 9.66 7 10 C7.33 10.99 7.66 11.98 8 13 C8.99 14.485 8.99 14.485 10 16 C9.34 16.66 8.68 17.32 8 18 C7.60167969 17.51789062 7.20335937 17.03578125 6.79296875 16.5390625 C6.26316406 15.90742187 5.73335938 15.27578125 5.1875 14.625 C4.66542969 13.99851562 4.14335937 13.37203125 3.60546875 12.7265625 C1.91774261 10.7778952 1.91774261 10.7778952 -1 9 C-1 8.34 -1 7.68 -1 7 C-0.34 6.67 0.32 6.34 1 6 C0.67 4.02 0.34 2.04 0 0 Z " fill="#2D2A2B" transform="translate(268,554)"/>
<path d="M0 0 C0.66 0.66 1.32 1.32 2 2 C1.360625 2.2475 0.72125 2.495 0.0625 2.75 C-2.15861061 3.79878028 -2.15861061 3.79878028 -2.6875 5.9375 C-2.8421875 6.9584375 -2.8421875 6.9584375 -3 8 C-3.33 8.99 -3.66 9.98 -4 11 C-5.32 11 -6.64 11 -8 11 C-8 10.01 -8 9.02 -8 8 C-9.65 8.33 -11.3 8.66 -13 9 C-8.91266859 5.55131413 -4.56194093 2.76206846 0 0 Z " fill="#302C2D" transform="translate(383,12)"/>
<path d="M0 0 C7.92 0 15.84 0 24 0 C24 0.33 24 0.66 24 1 C17.73 1 11.46 1 5 1 C5.33 2.98 5.66 4.96 6 7 C3.03 6.67 0.06 6.34 -3 6 C-2.505 5.38125 -2.01 4.7625 -1.5 4.125 C0.19222773 2.16119096 0.19222773 2.16119096 0 0 Z " fill="#3A3739" transform="translate(138,0)"/>
<path d="M0 0 C0.66 0 1.32 0 2 0 C2 0.66 2 1.32 2 2 C2.928125 1.67 3.85625 1.34 4.8125 1 C8 0 8 0 11 0 C11 0.66 11 1.32 11 2 C10.01 2.495 10.01 2.495 9 3 C9.99 3.66 10.98 4.32 12 5 C12.33 4.01 12.66 3.02 13 2 C13.33 3.98 13.66 5.96 14 8 C13.01 8.33 12.02 8.66 11 9 C9.68 7.68 8.36 6.36 7 5 C6.01 5.495 6.01 5.495 5 6 C2.5249829 4.88568235 0.32116581 3.41849022 -2 2 C-1.34 1.34 -0.68 0.68 0 0 Z " fill="#2A2426" transform="translate(386,272)"/>
<path d="M0 0 C0.625 1.8125 0.625 1.8125 1 4 C0.01 5.485 0.01 5.485 -1 7 C-1.02639829 9.29714187 -1.02639829 9.29714187 -0.625 11.6875 C-0.51414062 12.49574219 -0.40328125 13.30398437 -0.2890625 14.13671875 C-0.19367187 14.75160156 -0.09828125 15.36648437 0 16 C-0.99 15.67 -1.98 15.34 -3 15 C-3 14.34 -3 13.68 -3 13 C-4.65 13 -6.3 13 -8 13 C-6.85605098 11.01974361 -5.70978896 9.04082322 -4.5625 7.0625 C-3.92441406 5.96035156 -3.28632812 4.85820312 -2.62890625 3.72265625 C-1 1 -1 1 0 0 Z " fill="#2F2D2E" transform="translate(559,224)"/>
<path d="M0 0 C0.33 0.66 0.66 1.32 1 2 C1.99 2.33 2.98 2.66 4 3 C4 3.66 4 4.32 4 5 C2.75579353 5.5345256 1.50429064 6.05208611 0.25 6.5625 C-0.44609375 6.85253906 -1.1421875 7.14257812 -1.859375 7.44140625 C-4.30012784 8.07831803 -5.6403655 7.80248831 -8 7 C-7.9375 5.1875 -7.9375 5.1875 -7 3 C-3.4375 1.25 -3.4375 1.25 0 0 Z " fill="#E3E2E3" transform="translate(120,215)"/>
<path d="M0 0 C0 0.66 0 1.32 0 2 C0.8353125 1.98259766 0.8353125 1.98259766 1.6875 1.96484375 C6.89778343 1.90323567 11.8437951 2.25000656 17 3 C17 3.33 17 3.66 17 4 C13.99975053 4.05444001 11.00050961 4.0938836 8 4.125 C7.16082031 4.14175781 6.32164062 4.15851563 5.45703125 4.17578125 C-0.05254877 4.21849117 -4.71048292 3.55502007 -10 2 C-10 1.67 -10 1.34 -10 1 C-6.56484998 0.37542727 -3.50935186 0 0 0 Z " fill="#4D4A4B" transform="translate(484,284)"/>
<path d="M0 0 C0.33 0.66 0.66 1.32 1 2 C3.29220405 2.35437205 5.55538982 2.44336611 7.87109375 2.55859375 C10 3 10 3 12 6 C10.9275 5.67 9.855 5.34 8.75 5 C5.00268399 3.8282249 5.00268399 3.8282249 1 4 C-0.54960501 5.28118697 -0.54960501 5.28118697 -1.75 7 C-2.4925 7.99 -3.235 8.98 -4 10 C-4.99 9.34 -5.98 8.68 -7 8 C-7 7.34 -7 6.68 -7 6 C-6.01 5.67 -5.02 5.34 -4 5 C-3.67 4.01 -3.34 3.02 -3 2 C-2.01 1.34 -1.02 0.68 0 0 Z " fill="#2F2D2E" transform="translate(430,266)"/>
<path d="M0 0 C1.32 0.66 2.64 1.32 4 2 C4 4.31 4 6.62 4 9 C-0.10958767 7.54955729 -3.43258745 5.48889248 -7 3 C-6.34 2.34 -5.68 1.68 -5 1 C-2.375 1.375 -2.375 1.375 0 2 C0 1.34 0 0.68 0 0 Z " fill="#363233" transform="translate(67,242)"/>
<path d="M0 0 C0.99 0.33 1.98 0.66 3 1 C4.20642438 3.91552558 4.11307322 6.06553425 3 9 C2.01 9.495 2.01 9.495 1 10 C-1.625 9.0625 -1.625 9.0625 -4 8 C-2.87548273 5.0280615 -1.77706209 2.66559313 0 0 Z " fill="#2C2A2B" transform="translate(11,182)"/>
<path d="M0 0 C0 0.99 0 1.98 0 3 C0.99 3.33 1.98 3.66 3 4 C2.67 4.99 2.34 5.98 2 7 C0.68 7 -0.64 7 -2 7 C-2 7.66 -2 8.32 -2 9 C-5.16115776 7.63016497 -5.9927092 7.0109362 -8 4 C-7.01 3.67 -6.02 3.34 -5 3 C-5.33 2.34 -5.66 1.68 -6 1 C-3.92446352 0.4465236 -2.15634036 0 0 0 Z " fill="#1F1C1D" transform="translate(309,418)"/>
<path d="M0 0 C1.00333983 2.00667967 1.45815006 3.83260024 2 6 C2.33 6.66 2.66 7.32 3 8 C3.039992 9.99960012 3.04346799 12.00047242 3 14 C2.01 14.495 2.01 14.495 1 15 C0.13395466 13.23494565 -0.71748642 11.46271926 -1.5625 9.6875 C-2.03816406 8.70136719 -2.51382812 7.71523437 -3.00390625 6.69921875 C-4 4 -4 4 -3 1 C-2.01 0.67 -1.02 0.34 0 0 Z " fill="#2A2728" transform="translate(260,241)"/>
<path d="M0 0 C-0.33 0.99 -0.66 1.98 -1 3 C-1.66 3 -2.32 3 -3 3 C-3 3.66 -3 4.32 -3 5 C-4.390625 6.54296875 -4.390625 6.54296875 -6.25 8.1875 C-6.85328125 8.73792969 -7.4565625 9.28835937 -8.078125 9.85546875 C-10 11 -10 11 -12.234375 10.67578125 C-12.81703125 10.45277344 -13.3996875 10.22976562 -14 10 C-4.57142857 0 -4.57142857 0 0 0 Z " fill="#313031" transform="translate(404,227)"/>
<path d="M0 0 C2 1 2 1 2 1 Z M-3 1 C-0.525 1.495 -0.525 1.495 2 2 C2 2.66 2 3.32 2 4 C2.99 4 3.98 4 5 4 C5 4.66 5 5.32 5 6 C6.32 5.67 7.64 5.34 9 5 C9.33 6.32 9.66 7.64 10 9 C9.67 8.34 9.34 7.68 9 7 C8.34 7 7.68 7 7 7 C6.34 8.32 5.68 9.64 5 11 C3.85157077 9.71064081 2.70633773 8.41843421 1.5625 7.125 C0.92441406 6.40570313 0.28632813 5.68640625 -0.37109375 4.9453125 C-2 3 -2 3 -3 1 Z " fill="#292828" transform="translate(197,69)"/>
<path d="M0 0 C1.12894876 0.93274109 2.25300876 1.87140122 3.375 2.8125 C4.00148437 3.33457031 4.62796875 3.85664062 5.2734375 4.39453125 C7 6 7 6 9 9 C2.57472739 9.48492623 2.57472739 9.48492623 0 7.3125 C-1.2406034 4.44360465 -0.89942821 2.94358324 0 0 Z " fill="#322F30" transform="translate(240,42)"/>
<path d="M0 0 C0 3 0 3 -1.16162109 4.50219727 C-1.69352051 5.01838623 -2.22541992 5.5345752 -2.7734375 6.06640625 C-3.3509375 6.63423828 -3.9284375 7.20207031 -4.5234375 7.78710938 C-5.13445313 8.37298828 -5.74546875 8.95886719 -6.375 9.5625 C-7.27992188 10.44711914 -7.27992188 10.44711914 -8.203125 11.34960938 C-9.32527065 12.44557163 -10.45046098 13.53843093 -11.57958984 14.62719727 C-12.73095026 15.73996791 -13.86777005 16.86777005 -15 18 C-15 17.34 -15 16.68 -15 16 C-15.66 15.67 -16.32 15.34 -17 15 C-16.27554688 14.41992188 -15.55109375 13.83984375 -14.8046875 13.2421875 C-9.60374413 9.03982526 -4.60347013 4.85230636 0 0 Z " fill="#E4E3E3" transform="translate(563,254)"/>
<path d="M0 0 C0.33 0 0.66 0 1 0 C0.88487847 1.72985242 0.75744323 3.45888751 0.625 5.1875 C0.55539063 6.15042969 0.48578125 7.11335937 0.4140625 8.10546875 C-0.00497307 11.03476456 -0.90645437 13.26613593 -2 16 C-2.2759478 17.92903132 -2.48449903 19.8689032 -2.625 21.8125 C-2.69976562 22.78832031 -2.77453125 23.76414063 -2.8515625 24.76953125 C-2.90054687 25.50558594 -2.94953125 26.24164063 -3 27 C-3.33 27 -3.66 27 -4 27 C-4.59066447 17.12277749 -3.13506713 9.3352222 0 0 Z " fill="#423F40" transform="translate(4,194)"/>
<path d="M0 0 C0.66 0.33 1.32 0.66 2 1 C2 6.28 2 11.56 2 17 C1.67 17 1.34 17 1 17 C0.3299166 14.87607494 -0.33596797 12.75082476 -1 10.625 C-1.37125 9.44164062 -1.7425 8.25828125 -2.125 7.0390625 C-3 4 -3 4 -3 2 C-2.34 2 -1.68 2 -1 2 C-0.67 1.34 -0.34 0.68 0 0 Z " fill="#F1F0F1" transform="translate(582,191)"/>
<path d="M0 0 C2.64 0.33 5.28 0.66 8 1 C8 1.66 8 2.32 8 3 C7.1028125 3.433125 7.1028125 3.433125 6.1875 3.875 C3.80672208 5.04742026 3.80672208 5.04742026 1 7 C0.01 6.01 -0.98 5.02 -2 4 C-1.34 2.68 -0.68 1.36 0 0 Z " fill="#282727" transform="translate(446,216)"/>
<path d="M0 0 C0.66 0.99 1.32 1.98 2 3 C1.01 3.33 0.02 3.66 -1 4 C-2.04449911 7.13349732 -1.93423645 7.98968256 -1 11 C-3.375 11.625 -3.375 11.625 -6 12 C-6.66 11.34 -7.32 10.68 -8 10 C-5.36 6.7 -2.72 3.4 0 0 Z " fill="#343233" transform="translate(200,132)"/>
<path d="M0 0 C1.98 0 3.96 0 6 0 C4.03681826 3.53372712 1.95929119 6.24479785 -1 9 C-1.66 7.68 -2.32 6.36 -3 5 C-2.01 4.67 -1.02 4.34 0 4 C0 2.68 0 1.36 0 0 Z " fill="#2C282A" transform="translate(195,187)"/>
<path d="M0 0 C0.61875 0.350625 1.2375 0.70125 1.875 1.0625 C2.57625 1.371875 3.2775 1.68125 4 2 C4.66 1.67 5.32 1.34 6 1 C5.96744792 2.98567708 5.93489583 4.97135417 5.90234375 6.95703125 C5.91736783 9.20305461 5.91736783 9.20305461 7 12 C6.01 12.495 6.01 12.495 5 13 C2.25477117 8.57221156 0.51525603 5.28137429 0 0 Z " fill="#2C2A2B" transform="translate(337,386)"/>
<path d="M0 0 C1.65 0 3.3 0 5 0 C4.01 1.485 4.01 1.485 3 3 C3 3.66 3 4.32 3 5 C3.66 5.33 4.32 5.66 5 6 C4.67 6.99 4.34 7.98 4 9 C1.5625 8.3125 1.5625 8.3125 -1 7 C-1.8125 4.375 -1.8125 4.375 -2 2 C-1.34 2 -0.68 2 0 2 C0 1.34 0 0.68 0 0 Z " fill="#3B393A" transform="translate(458,205)"/>
<path d="M0 0 C0.33 0 0.66 0 1 0 C1 3.3 1 6.6 1 10 C-0.98 10.99 -0.98 10.99 -3 12 C-3 12.66 -3 13.32 -3 14 C-3.66 14 -4.32 14 -5 14 C-3.45730076 9.27934033 -1.92205381 4.58335908 0 0 Z " fill="#E9E9E9" transform="translate(583,222)"/>
<path d="M0 0 C0.33 0.66 0.66 1.32 1 2 C0.505 2.53625 0.01 3.0725 -0.5 3.625 C-2.37489544 6.59358445 -2.23501425 8.55312427 -2 12 C-2.66 12 -3.32 12 -4 12 C-4.33 12.66 -4.66 13.32 -5 14 C-6.32 13.67 -7.64 13.34 -9 13 C-6.03 8.71 -3.06 4.42 0 0 Z " fill="#383737" transform="translate(330,56)"/>
<path d="M0 0 C0.66 0 1.32 0 2 0 C2 0.99 2 1.98 2 3 C2.66 3 3.32 3 4 3 C4.33 2.34 4.66 1.68 5 1 C5.625 3.875 5.625 3.875 6 7 C5.34 7.66 4.68 8.32 4 9 C1.69 7.02 -0.62 5.04 -3 3 C-2.01 2.01 -1.02 1.02 0 0 Z " fill="#353032" transform="translate(167,41)"/>
<path d="M0 0 C0.33 0 0.66 0 1 0 C0.03644647 9.41002278 0.03644647 9.41002278 -1 14 C-1.99 14 -2.98 14 -4 14 C-4.80967438 11.08517222 -5.21845993 9.53886783 -4.0625 6.6875 C-3.711875 6.130625 -3.36125 5.57375 -3 5 C-2.01 5 -1.02 5 0 5 C0 3.35 0 1.7 0 0 Z " fill="#2F2D2E" transform="translate(390,362)"/>
<path d="M0 0 C0.66 0.33 1.32 0.66 2 1 C1.43137108 4.29804771 0.49977286 5.80019989 -2 8 C-2.66 8.66 -3.32 9.32 -4 10 C-4.99 9.67 -5.98 9.34 -7 9 C-5.44499019 5.18315774 -2.96404505 2.80804268 0 0 Z " fill="#3C3B3B" transform="translate(169,193)"/>
<path d="M0 0 C0.66 0.66 1.32 1.32 2 2 C1.69208308 3.671549 1.35613097 5.33805547 1 7 C1.185625 7.721875 1.37125 8.44375 1.5625 9.1875 C1.706875 9.785625 1.85125 10.38375 2 11 C1.34 11.66 0.68 12.32 0 13 C0 12.34 0 11.68 0 11 C-0.99 11 -1.98 11 -3 11 C-2.44894091 7.0507432 -1.61064629 3.65079826 0 0 Z " fill="#333031" transform="translate(325,525)"/>
<path d="M0 0 C0.33 0.99 0.66 1.98 1 3 C-0.65 4.65 -2.3 6.3 -4 8 C-6 5 -6 5 -5.8125 2.875 C-5.544375 2.25625 -5.27625 1.6375 -5 1 C-2 0 -2 0 0 0 Z " fill="#292728" transform="translate(255,376)"/>
<path d="M0 0 C0.66 0.33 1.32 0.66 2 1 C-0.64 5.29 -3.28 9.58 -6 14 C-7.29474635 10.11576096 -6.63372371 8.71300843 -5 5 C-2.375 2.125 -2.375 2.125 0 0 Z " fill="#2D2A2B" transform="translate(339,222)"/>
<path d="M0 0 C1.98 0.66 3.96 1.32 6 2 C5.67 3.32 5.34 4.64 5 6 C0.545 5.01 0.545 5.01 -4 4 C-2.68 2.68 -1.36 1.36 0 0 Z " fill="#E3E1E2" transform="translate(466,217)"/>
<path d="M0 0 C-3.27708863 3.67033927 -6.71522208 5.69281189 -11 8 C-10.38722388 5.03824877 -9.74627478 3.61941217 -8 1 C-4.65086245 -0.71750644 -3.65376797 -1.21792266 0 0 Z " fill="#2D2B2C" transform="translate(441,28)"/>
<path d="M0 0 C0.66 1.32 1.32 2.64 2 4 C1.67 4.99 1.34 5.98 1 7 C0.34 7 -0.32 7 -1 7 C-1 7.99 -1 8.98 -1 10 C-2.65 9.67 -4.3 9.34 -6 9 C-4.02 6.03 -2.04 3.06 0 0 Z " fill="#2E2D2D" transform="translate(286,458)"/>
<path d="M0 0 C0.33 0.99 0.66 1.98 1 3 C1.99 3.33 2.98 3.66 4 4 C4 4.66 4 5.32 4 6 C4.99 6.33 5.98 6.66 7 7 C7.33 7.99 7.66 8.98 8 10 C5 10 5 10 3.359375 8.57421875 C2.82828125 7.95160156 2.2971875 7.32898438 1.75 6.6875 C1.20859375 6.07261719 0.6671875 5.45773437 0.109375 4.82421875 C-0.25671875 4.22222656 -0.6228125 3.62023437 -1 3 C-0.67 2.01 -0.34 1.02 0 0 Z M5 1 C5 4 5 4 5 4 Z " fill="#2B2A2A" transform="translate(153,266)"/>
<path d="M0 0 C0.99 0.33 1.98 0.66 3 1 C2.50168276 4.68754757 1.89932357 6.60490662 -1 9 C-1 7.68 -1 6.36 -1 5 C-1.99 4.67 -2.98 4.34 -4 4 C-2.68 2.68 -1.36 1.36 0 0 Z " fill="#D9D7D9" transform="translate(188,255)"/>
<path d="M0 0 C2.31 0.33 4.62 0.66 7 1 C7 1.66 7 2.32 7 3 C6.34 3 5.68 3 5 3 C4.67 3.99 4.34 4.98 4 6 C3.34 6.66 2.68 7.32 2 8 C1.67 7.01 1.34 6.02 1 5 C-2.51190809 3.77030122 -2.51190809 3.77030122 -6 3 C-6 2.67 -6 2.34 -6 2 C-4.02 2 -2.04 2 0 2 C0 1.34 0 0.68 0 0 Z " fill="#383435" transform="translate(223,170)"/>
<path d="M0 0 C1.6875 1.5 1.6875 1.5 3 4 C2.35208262 6.82923922 1.23902204 9.38216883 0 12 C-0.66 11.34 -1.32 10.68 -2 10 C-4.06874034 9.3574765 -4.06874034 9.3574765 -6 9 C-4.7934375 7.88625 -4.7934375 7.88625 -3.5625 6.75 C-1.23011409 4.24695171 -0.36465606 3.2819045 0 0 Z " fill="#363435" transform="translate(310,92)"/>
<path d="M0 0 C1.96301592 3.50538557 2.95902388 7.13351728 4 11 C3.34 11 2.68 11 2 11 C1.67 11.66 1.34 12.32 1 13 C0.44213732 11.40139351 -0.09579568 9.79582095 -0.625 8.1875 C-0.92664063 7.29417969 -1.22828125 6.40085937 -1.5390625 5.48046875 C-2 3 -2 3 0 0 Z " fill="#343132" transform="translate(226,316)"/>
<path d="M0 0 C0.66 1.32 1.32 2.64 2 4 C1.525625 4.61875 1.05125 5.2375 0.5625 5.875 C-1.02417441 7.90705546 -1.02417441 7.90705546 -2 10 C-2.66 9.67 -3.32 9.34 -4 9 C-4.625 5.9375 -4.625 5.9375 -5 3 C-4.01 3 -3.02 3 -2 3 C-2 2.34 -2 1.68 -2 1 C-1.34 0.67 -0.68 0.34 0 0 Z " fill="#1F1C1D" transform="translate(285,421)"/>
<path d="M0 0 C0.99 0.33 1.98 0.66 3 1 C2.67 1.99 2.34 2.98 2 4 C2.99 4.33 3.98 4.66 5 5 C1.04 6.98 1.04 6.98 -3 9 C-3 7.68 -3 6.36 -3 5 C-2.34 5 -1.68 5 -1 5 C-0.67 3.35 -0.34 1.7 0 0 Z " fill="#2D292A" transform="translate(518,241)"/>
<path d="M0 0 C0.66 0 1.32 0 2 0 C2.66 1.32 3.32 2.64 4 4 C2.329375 4.4021875 2.329375 4.4021875 0.625 4.8125 C-3.21840951 5.65809019 -3.21840951 5.65809019 -5 9 C-5.33 7.02 -5.66 5.04 -6 3 C-4.68 2.34 -3.36 1.68 -2 1 C-2 1.66 -2 2.32 -2 3 C-1.34 3 -0.68 3 0 3 C0 2.01 0 1.02 0 0 Z " fill="#312D2F" transform="translate(363,169)"/>
<path d="M0 0 C1.32 0 2.64 0 4 0 C4.33 1.98 4.66 3.96 5 6 C4.67 5.01 4.34 4.02 4 3 C2.68 3 1.36 3 0 3 C0 4.98 0 6.96 0 9 C-0.99 9.495 -0.99 9.495 -2 10 C-2.17942163 6.05272412 -2.09350689 3.4019487 0 0 Z " fill="#484848" transform="translate(295,546)"/>
<path d="M0 0 C1.65 0.33 3.3 0.66 5 1 C4.67 2.65 4.34 4.3 4 6 C3.67 5.01 3.34 4.02 3 3 C2.01 3 1.02 3 0 3 C0 3.99 0 4.98 0 6 C-1.98 6.99 -1.98 6.99 -4 8 C-2.87548273 5.0280615 -1.77706209 2.66559313 0 0 Z " fill="#424041" transform="translate(257,395)"/>
<path d="M0 0 C0.55171875 0.48082031 1.1034375 0.96164062 1.671875 1.45703125 C4.36143493 3.23954161 6.05821418 3.47751409 9.25 3.6875 C10.14203125 3.75324219 11.0340625 3.81898438 11.953125 3.88671875 C12.62859375 3.92410156 13.3040625 3.96148437 14 4 C14 4.33 14 4.66 14 5 C12.7625 5.12375 11.525 5.2475 10.25 5.375 C7.1237803 5.75746305 4.71120763 6.30549523 2 8 C0.74335022 5.09399739 0 3.20395416 0 0 Z " fill="#3A393A" transform="translate(170,262)"/>
<path d="M0 0 C0 0.66 0 1.32 0 2 C-4.43076923 4.09230769 -4.43076923 4.09230769 -7.3125 3.625 C-7.869375 3.41875 -8.42625 3.2125 -9 3 C-8.67 2.01 -8.34 1.02 -8 0 C-5.13822943 -1.43088528 -3.06624227 -0.59991697 0 0 Z " fill="#312F30" transform="translate(445,227)"/>
<path d="M0 0 C0.33 0.99 0.66 1.98 1 3 C-1.64 3 -4.28 3 -7 3 C-7.33 2.01 -7.66 1.02 -8 0 C-5.13822943 -1.43088528 -3.06624227 -0.59991697 0 0 Z " fill="#312E2F" transform="translate(147,227)"/>
<path d="M0 0 C0.33 0 0.66 0 1 0 C1 4.62 1 9.24 1 14 C0.34 13.34 -0.32 12.68 -1 12 C-1.99 12.33 -2.98 12.66 -4 13 C-4 11.35 -4 9.7 -4 8 C-3.34 7.67 -2.68 7.34 -2 7 C-1.34 7.33 -0.68 7.66 0 8 C0 5.36 0 2.72 0 0 Z " fill="#3A3738" transform="translate(583,208)"/>
<path d="M0 0 C0.33 0 0.66 0 1 0 C1.125 6.75 1.125 6.75 0 9 C-3.79588866 8.45773019 -5.47211993 6.79872437 -8 4 C-7.21625 4.185625 -6.4325 4.37125 -5.625 4.5625 C-3.02910225 5.25962266 -3.02910225 5.25962266 -1 4 C-0.34786708 1.97536745 -0.34786708 1.97536745 0 0 Z " fill="#434242" transform="translate(289,426)"/>
<path d="M0 0 C1.32 0 2.64 0 4 0 C7.22265625 5.17578125 7.22265625 5.17578125 8 7 C7.67 7.99 7.34 8.98 7 10 C3.72713318 7.2180632 2.03572303 3.72045933 0 0 Z " fill="#2F2E2F" transform="translate(378,179)"/>
<path d="M0 0 C1.98 0 3.96 0 6 0 C5.67 0.66 5.34 1.32 5 2 C5.66 2.66 6.32 3.32 7 4 C6.01 4.495 6.01 4.495 5 5 C4.34 4.67 3.68 4.34 3 4 C0.62876754 3.76970044 -1.74741943 3.58880058 -4.125 3.4375 C-5.40632813 3.35371094 -6.68765625 3.26992187 -8.0078125 3.18359375 C-9.48894531 3.09271484 -9.48894531 3.09271484 -11 3 C-11 2.67 -11 2.34 -11 2 C-5.555 1.505 -5.555 1.505 0 1 C0 0.67 0 0.34 0 0 Z " fill="#474546" transform="translate(297,147)"/>
<path d="M0 0 C1.32 0 2.64 0 4 0 C6 3 6 3 5.625 5.1875 C5.41875 5.785625 5.2125 6.38375 5 7 C3.02 5.35 1.04 3.7 -1 2 C-0.67 1.34 -0.34 0.68 0 0 Z " fill="#2E2A2B" transform="translate(262,554)"/>
<path d="M0 0 C0.33 0.99 0.66 1.98 1 3 C0.01 4.485 0.01 4.485 -1 6 C-3.97 5.505 -3.97 5.505 -7 5 C-7.33 4.01 -7.66 3.02 -8 2 C-2.25 0 -2.25 0 0 0 Z " fill="#393738" transform="translate(309,504)"/>
<path d="M0 0 C2 3 2 3 2 5 C2.66 5 3.32 5 4 5 C3.67 6.98 3.34 8.96 3 11 C0.67527795 8.14693203 -0.7508258 5.45925163 -2 2 C-1.34 1.34 -0.68 0.68 0 0 Z " fill="#2D2A2B" transform="translate(323,364)"/>
<path d="M0 0 C1 3 1 3 1 6 C1.33 6.66 1.66 7.32 2 8 C1.72057545 9.67654729 1.39171753 11.34608154 1 13 C0.896875 12.360625 0.79375 11.72125 0.6875 11.0625 C0.460625 10.381875 0.23375 9.70125 0 9 C-0.99 8.67 -1.98 8.34 -3 8 C-2.74438677 5.6568787 -2.40729228 3.32156597 -2 1 C-1.34 0.67 -0.68 0.34 0 0 Z " fill="#1D1B1C" transform="translate(413,208)"/>
<path d="M0 0 C2 3 2 3 1.6875 5.375 C1.460625 6.24125 1.23375 7.1075 1 8 C0.896875 8.886875 0.79375 9.77375 0.6875 10.6875 C0 13 0 13 -2.04296875 14.14453125 C-3.01169922 14.56798828 -3.01169922 14.56798828 -4 15 C-3.69255859 14.00419922 -3.69255859 14.00419922 -3.37890625 12.98828125 C-3.10949219 12.10527344 -2.84007812 11.22226563 -2.5625 10.3125 C-2.29566406 9.44238281 -2.02882813 8.57226562 -1.75390625 7.67578125 C-1.03655471 5.12974079 -0.482459 2.5996577 0 0 Z " fill="#3C3A3B" transform="translate(317,181)"/>
<path d="M0 0 C4.19162145 0.95264124 5.7207791 1.63260408 8.375 5.125 C8.91125 6.07375 9.4475 7.0225 10 8 C9.01 8 8.02 8 7 8 C6.67 7.01 6.34 6.02 6 5 C5.360625 4.855625 4.72125 4.71125 4.0625 4.5625 C2 4 2 4 0.75 1.9375 C0.5025 1.298125 0.255 0.65875 0 0 Z " fill="#2D2B2C" transform="translate(281,551)"/>
<path d="M0 0 C0.66 0.99 1.32 1.98 2 3 C1.67 3.66 1.34 4.32 1 5 C-1.32156597 5.40729228 -3.6568787 5.74438677 -6 6 C-6 4.68 -6 3.36 -6 2 C-4.02 1.34 -2.04 0.68 0 0 Z " fill="#1D1B1C" transform="translate(126,257)"/>
<path d="M0 0 C0.8353125 0.556875 0.8353125 0.556875 1.6875 1.125 C1.6875 2.115 1.6875 3.105 1.6875 4.125 C-5.0625 3.375 -5.0625 3.375 -7.3125 1.125 C-2.88173077 -1.09038462 -2.88173077 -1.09038462 0 0 Z " fill="#E8E7E7" transform="translate(450.3125,224.875)"/>
<path d="M0 0 C2.00720923 0.28674418 4.0085944 0.61866701 6 1 C5.67 2.65 5.34 4.3 5 6 C3.68 5.34 2.36 4.68 1 4 C1 3.34 1 2.68 1 2 C0.34 1.67 -0.32 1.34 -1 1 C-0.67 0.67 -0.34 0.34 0 0 Z " fill="#E6E6E6" transform="translate(258,484)"/>
<path d="M0 0 C0.66 0.33 1.32 0.66 2 1 C1.67 1.94875 1.34 2.8975 1 3.875 C-0.10159191 6.77062452 -0.10159191 6.77062452 0 9 C-1.32 8.34 -2.64 7.68 -4 7 C-3.43628586 3.73045798 -2.50037734 2.17424117 0 0 Z " fill="#3A3839" transform="translate(372,248)"/>
<path d="M0 0 C2 3 2 3 1.625 5.6875 C1.41875 6.450625 1.2125 7.21375 1 8 C-0.32 7.67 -1.64 7.34 -3 7 C-3 6.01 -3 5.02 -3 4 C-2.34 4 -1.68 4 -1 4 C-0.67 2.68 -0.34 1.36 0 0 Z " fill="#1D1B1C" transform="translate(324,240)"/>
<path d="M0 0 C0.66 0.33 1.32 0.66 2 1 C1.625 2.9375 1.625 2.9375 1 5 C0.01 5.495 0.01 5.495 -1 6 C-1.72693904 7.97888961 -2.39816251 9.97954558 -3 12 C-4.1484375 10.265625 -4.1484375 10.265625 -5 8 C-4.1015625 5.859375 -4.1015625 5.859375 -2.625 3.75 C-2.14289063 3.04359375 -1.66078125 2.3371875 -1.1640625 1.609375 C-0.77992188 1.07828125 -0.39578125 0.5471875 0 0 Z " fill="#3B3738" transform="translate(189,146)"/>
<path d="M0 0 C2.97 0.33 5.94 0.66 9 1 C5.90097677 4.09902323 3.60852615 3.9898579 -0.75 4.0625 C-1.8225 4.041875 -2.895 4.02125 -4 4 C-4 3.67 -4 3.34 -4 3 C-2.02 3 -0.04 3 2 3 C2 2.34 2 1.68 2 1 C1.34 0.67 0.68 0.34 0 0 Z " fill="#413F40" transform="translate(104,283)"/>
<path d="M0 0 C1.98 0.66 3.96 1.32 6 2 C5.67 3.98 5.34 5.96 5 8 C4.01 7.67 3.02 7.34 2 7 C0.8125 3.4375 0.8125 3.4375 0 0 Z " fill="#2D2A2B" transform="translate(377,260)"/>
<path d="M0 0 C1.98 0.495 1.98 0.495 4 1 C3.34 1 2.68 1 2 1 C2 1.66 2 2.32 2 3 C2.66 3 3.32 3 4 3 C4.66 4.32 5.32 5.64 6 7 C3 7 3 7 0.8125 5 C0.214375 4.34 -0.38375 3.68 -1 3 C-0.67 2.01 -0.34 1.02 0 0 Z " fill="#2C2A2B" transform="translate(50,233)"/>
<path d="M0 0 C2.4375 0.6875 2.4375 0.6875 5 2 C5.8125 4.625 5.8125 4.625 6 7 C5.01 7.495 5.01 7.495 4 8 C4 7.34 4 6.68 4 6 C2.68 6 1.36 6 0 6 C0 4.02 0 2.04 0 0 Z " fill="#1C1A1B" transform="translate(385,184)"/>
<path d="M0 0 C0.99 0.33 1.98 0.66 3 1 C3.6875 3.0625 3.6875 3.0625 4 5 C3.34 4.67 2.68 4.34 2 4 C0.515 6.475 0.515 6.475 -1 9 C-2.35439668 6.29120665 -2.06501451 3.99066732 -2 1 C-1.34 0.67 -0.68 0.34 0 0 Z " fill="#1F191B" transform="translate(275,542)"/>
<path d="M0 0 C0.33 0 0.66 0 1 0 C1.28875 0.969375 1.5775 1.93875 1.875 2.9375 C2.64214682 6.10664203 2.64214682 6.10664203 5 7 C5 7.99 5 8.98 5 10 C3.68 10 2.36 10 1 10 C-0.60725635 6.78548731 -0.05748185 3.56387464 0 0 Z " fill="#4E4D4E" transform="translate(294,425)"/>
<path d="M0 0 C3.3 0 6.6 0 10 0 C7 3 7 3 3.3125 3.1875 C1.6728125 3.0946875 1.6728125 3.0946875 0 3 C0 2.01 0 1.02 0 0 Z " fill="#211E1F" transform="translate(274,420)"/>
<path d="M0 0 C0.66 0 1.32 0 2 0 C2.86516528 4.49885947 3.30903272 7.01647791 1 11 C0.63890458 9.35567294 0.28629924 7.7094792 -0.0625 6.0625 C-0.25972656 5.14597656 -0.45695312 4.22945313 -0.66015625 3.28515625 C-0.77230469 2.53105469 -0.88445312 1.77695312 -1 1 C-0.67 0.67 -0.34 0.34 0 0 Z " fill="#2B2829" transform="translate(348,407)"/>
<path d="M0 0 C0.64453125 1.765625 0.64453125 1.765625 1 4 C0.07421875 5.921875 0.07421875 5.921875 -1.3125 7.75 C-1.98732422 8.67039062 -1.98732422 8.67039062 -2.67578125 9.609375 C-3.11277344 10.06828125 -3.54976562 10.5271875 -4 11 C-4.66 11 -5.32 11 -6 11 C-4.54955729 6.89041233 -2.48889248 3.56741255 0 0 Z " fill="#D0CECF" transform="translate(247,389)"/>
<path d="M0 0 C0.66 0.33 1.32 0.66 2 1 C0.515 3.475 0.515 3.475 -1 6 C-3.31 5.67 -5.62 5.34 -8 5 C-2.6 1.4 -2.6 1.4 0 0 Z " fill="#3C383A" transform="translate(254,325)"/>
<path d="M0 0 C-0.75 1.9375 -0.75 1.9375 -2 4 C-4.125 4.75 -4.125 4.75 -6 5 C-6.66 3.68 -7.32 2.36 -8 1 C-2.25 -1.125 -2.25 -1.125 0 0 Z " fill="#E9E9E9" transform="translate(526,282)"/>
<path d="M0 0 C1.98 0.66 3.96 1.32 6 2 C3.94766315 4.2477975 2.99332739 5.0022242 0 6 C-0.38218767 4.34385343 -0.71395102 2.67542976 -1 1 C-0.67 0.67 -0.34 0.34 0 0 Z " fill="#2C2A2B" transform="translate(418,275)"/>
<path d="M0 0 C0 0.66 0 1.32 0 2 C1.32 2 2.64 2 4 2 C4.33 3.32 4.66 4.64 5 6 C1.22454612 4.90931332 -1.47043472 4.0916909 -4 1 C-2 0 -2 0 0 0 Z " fill="#322E2F" transform="translate(388,272)"/>
<path d="M0 0 C0.33 0.99 0.66 1.98 1 3 C0.67 3.33 0.34 3.66 0 4 C0.020625 5.134375 0.04125 6.26875 0.0625 7.4375 C0 11 0 11 -2 13 C-3.25 10.4375 -3.25 10.4375 -4 7 C-2.97381014 4.34989114 -1.61515439 2.37522704 0 0 Z " fill="#302E2F" transform="translate(304,210)"/>
<path d="M0 0 C0.66 1.32 1.32 2.64 2 4 C2.66 4 3.32 4 4 4 C4.33 3.34 4.66 2.68 5 2 C4.67 3.65 4.34 5.3 4 7 C2.02 6.34 0.04 5.68 -2 5 C-2 4.34 -2 3.68 -2 3 C-1.34 3 -0.68 3 0 3 C0 2.01 0 1.02 0 0 Z " fill="#1D1B1C" transform="translate(170,208)"/>
<path d="M0 0 C1.65 0.33 3.3 0.66 5 1 C5 1.99 5 2.98 5 4 C3.35 4.66 1.7 5.32 0 6 C-1.125 2.25 -1.125 2.25 0 0 Z " fill="#2B292A" transform="translate(209,170)"/>
<path d="M0 0 C0.66 0.66 1.32 1.32 2 2 C1.67 2.66 1.34 3.32 1 4 C0.34 4 -0.32 4 -1 4 C-1 4.66 -1 5.32 -1 6 C-0.34 6.33 0.32 6.66 1 7 C-0.32 7.33 -1.64 7.66 -3 8 C-3.66 7.01 -4.32 6.02 -5 5 C-3.35 3.35 -1.7 1.7 0 0 Z " fill="#2A2829" transform="translate(301,104)"/>
<path d="M0 0 C4.875 4.75 4.875 4.75 6 7 C5.34 7 4.68 7 4 7 C3.67 7.66 3.34 8.32 3 9 C3 8.34 3 7.68 3 7 C2.34 7 1.68 7 1 7 C0.34 5.02 -0.32 3.04 -1 1 C-0.67 0.67 -0.34 0.34 0 0 Z " fill="#333233" transform="translate(249,51)"/>
<path d="M0 0 C0.99 0.66 1.98 1.32 3 2 C2.01 2.495 2.01 2.495 1 3 C1.99 3.66 2.98 4.32 4 5 C1.69 5.66 -0.62 6.32 -3 7 C-3 5.02 -3 3.04 -3 1 C-2.01 1.33 -1.02 1.66 0 2 C0 1.34 0 0.68 0 0 Z " fill="#332E30" transform="translate(323,515)"/>
<path d="M0 0 C2.18975773 3.28463659 2.99806563 6.20696275 4 10 C2.68 10 1.36 10 0 10 C0 6.7 0 3.4 0 0 Z " fill="#E9E9E9" transform="translate(0,221)"/>
<path d="M0 0 C0.66 0 1.32 0 2 0 C1.8125 2.375 1.8125 2.375 1 5 C-1.5625 6.3125 -1.5625 6.3125 -4 7 C-4.33 6.01 -4.66 5.02 -5 4 C-4.0409375 3.8453125 -4.0409375 3.8453125 -3.0625 3.6875 C-2.381875 3.460625 -1.70125 3.23375 -1 3 C-0.67 2.01 -0.34 1.02 0 0 Z " fill="#3D3B3C" transform="translate(126,207)"/>
<path d="M0 0 C0.66 0 1.32 0 2 0 C2.33 0.99 2.66 1.98 3 3 C3.99 4.485 3.99 4.485 5 6 C4.34 6.66 3.68 7.32 3 8 C1.35 6.02 -0.3 4.04 -2 2 C-1.34 1.34 -0.68 0.68 0 0 Z " fill="#4A4748" transform="translate(273,564)"/>
<path d="M0 0 C1.74627478 2.61941217 2.38722388 4.03824877 3 7 C1.68 7.33 0.36 7.66 -1 8 C-2.2077558 4.37673261 -1.54311128 3.35853631 0 0 Z " fill="#393738" transform="translate(300,552)"/>
<path d="M0 0 C0.99 0.33 1.98 0.66 3 1 C2.46930939 4.82097239 1.50298434 7.06171403 -1 10 C-1.33 8.02 -1.66 6.04 -2 4 C-1.01 4.495 -1.01 4.495 0 5 C0 3.35 0 1.7 0 0 Z " fill="#1C1A1B" transform="translate(402,312)"/>
<path d="M0 0 C0.99 0.33 1.98 0.66 3 1 C0.47043472 4.0916909 -2.22454612 4.90931332 -6 6 C-6 5.34 -6 4.68 -6 4 C-3.1875 1.8125 -3.1875 1.8125 0 0 Z " fill="#2D2B2C" transform="translate(125,276)"/>
<path d="M0 0 C2.475 0.99 2.475 0.99 5 2 C4.67 2.99 4.34 3.98 4 5 C3.01 5.33 2.02 5.66 1 6 C0.01 5.01 -0.98 4.02 -2 3 C-1.34 2.34 -0.68 1.68 0 1 C0 0.67 0 0.34 0 0 Z " fill="#2D2B2C" transform="translate(162,274)"/>
<path d="M0 0 C2.5 1.3125 2.5 1.3125 5 3 C5 3.99 5 4.98 5 6 C4.34 6 3.68 6 3 6 C3 5.34 3 4.68 3 4 C2.01 4.33 1.02 4.66 0 5 C-0.33 4.01 -0.66 3.02 -1 2 C-0.67 1.34 -0.34 0.68 0 0 Z " fill="#302E2F" transform="translate(44,248)"/>
<path d="M0 0 C1.33332095 2.6666419 0.67102033 4.16680303 0 7 C-0.99 7 -1.98 7 -3 7 C-3.33 5.35 -3.66 3.7 -4 2 C-2.68 1.34 -1.36 0.68 0 0 Z " fill="#333132" transform="translate(260,241)"/>
<path d="M0 0 C0.99 0 1.98 0 3 0 C3 3 3 6 3 9 C0.86928411 6.40608501 -0.53582673 4.36525621 -1 1 C-0.67 0.67 -0.34 0.34 0 0 Z " fill="#2E2B2C" transform="translate(3,225)"/>
<path d="M0 0 C5.445 1.485 5.445 1.485 11 3 C10.67 3.99 10.34 4.98 10 6 C6.40992874 4.66654496 3.20429093 3.1056769 0 1 C0 0.67 0 0.34 0 0 Z " fill="#464445" transform="translate(392,198)"/>
<path d="M0 0 C0.33 0 0.66 0 1 0 C3 5.625 3 5.625 3 9 C2.01 9.495 2.01 9.495 1 10 C1 9.34 1 8.68 1 8 C0.34 8 -0.32 8 -1 8 C-0.67 6.68 -0.34 5.36 0 4 C-0.66 3.67 -1.32 3.34 -2 3 C-1.34 3 -0.68 3 0 3 C0 2.01 0 1.02 0 0 Z " fill="#2C2A2B" transform="translate(410,186)"/>
<path d="M0 0 C0.66 0 1.32 0 2 0 C3.32 2.31 4.64 4.62 6 7 C5.01 7 4.02 7 3 7 C0.8125 4 0.8125 4 -1 1 C-0.67 0.67 -0.34 0.34 0 0 Z " fill="#EDECEC" transform="translate(253,53)"/>
<path d="M0 0 C0.66 0.33 1.32 0.66 2 1 C2 1.66 2 2.32 2 3 C2.66 3.66 3.32 4.32 4 5 C2.02 5.33 0.04 5.66 -2 6 C-2.33 5.01 -2.66 4.02 -3 3 C-2.34 3 -1.68 3 -1 3 C-0.67 2.01 -0.34 1.02 0 0 Z " fill="#1F1B1C" transform="translate(307,486)"/>
<path d="M0 0 C3.65316671 1.24976756 4.78065836 1.67098753 7 5 C5.68 4.67 4.36 4.34 3 4 C2.67 4.66 2.34 5.32 2 6 C2 5.01 2 4.02 2 3 C1.34 3 0.68 3 0 3 C0 2.01 0 1.02 0 0 Z " fill="#3D3B3C" transform="translate(33,239)"/>
<path d="M0 0 C0.66 0.99 1.32 1.98 2 3 C0.68 4.65 -0.64 6.3 -2 8 C-2.66 7.67 -3.32 7.34 -4 7 C-3.6875 5.0625 -3.6875 5.0625 -3 3 C-2.01 2.67 -1.02 2.34 0 2 C0 1.34 0 0.68 0 0 Z " fill="#332E30" transform="translate(576,233)"/>
<path d="M0 0 C0.66 2.97 1.32 5.94 2 9 C1.01 8.67 0.02 8.34 -1 8 C-1.12375 7.030625 -1.2475 6.06125 -1.375 5.0625 C-1.58125 4.051875 -1.7875 3.04125 -2 2 C-2.66 1.67 -3.32 1.34 -4 1 C-1 0 -1 0 0 0 Z " fill="#313031" transform="translate(175,214)"/>
<path d="M0 0 C0 1.32 0 2.64 0 4 C-1.65 4 -3.3 4 -5 4 C-5 3.34 -5 2.68 -5 2 C-5.66 1.67 -6.32 1.34 -7 1 C-4 0 -4 0 0 0 Z " fill="#302C2D" transform="translate(105,211)"/>
<path d="M0 0 C0.66 0 1.32 0 2 0 C2 0.99 2 1.98 2 3 C2.99 2.67 3.98 2.34 5 2 C5 5 5 5 3.5 6.6875 C3.005 7.120625 2.51 7.55375 2 8 C0.74335022 5.09399739 0 3.20395416 0 0 Z " fill="#282728" transform="translate(376,76)"/>
<path d="M0 0 C1.32 0.66 2.64 1.32 4 2 C3.34 2 2.68 2 2 2 C2 4.31 2 6.62 2 9 C1.01 8.67 0.02 8.34 -1 8 C-0.67 5.36 -0.34 2.72 0 0 Z " fill="#1C1A1B" transform="translate(333,54)"/>
<path d="M0 0 C1.65 0 3.3 0 5 0 C3.02 2.31 1.04 4.62 -1 7 C-1.66 6.01 -2.32 5.02 -3 4 C-2.505 3.525625 -2.01 3.05125 -1.5 2.5625 C0.11542197 1.24076302 0.11542197 1.24076302 0 0 Z " fill="#2C2A2B" transform="translate(451,16)"/>
<path d="M0 0 C2.52588702 2.36292656 3.88820837 3.66462511 5 7 C4.01 7 3.02 7 2 7 C0 4 0 4 0 0 Z " fill="#323031" transform="translate(233,497)"/>
<path d="M0 0 C0.33 0.99 0.66 1.98 1 3 C1.66 3 2.32 3 3 3 C3.33 4.98 3.66 6.96 4 9 C3.01 9 2.02 9 1 9 C-1.125 2.25 -1.125 2.25 0 0 Z " fill="#2A2829" transform="translate(178,313)"/>
<path d="M0 0 C2.125 0.375 2.125 0.375 4 1 C3.01 1.66 2.02 2.32 1 3 C-0.19232613 5.05003955 -0.19232613 5.05003955 -1 7 C-1.66 7 -2.32 7 -3 7 C-2.25 2.25 -2.25 2.25 0 0 Z " fill="#545454" transform="translate(368,280)"/>
<path d="M0 0 C2.64 0.33 5.28 0.66 8 1 C7.67 2.32 7.34 3.64 7 5 C4.11562221 3.70700306 2.12780579 2.34058637 0 0 Z " fill="#403C3D" transform="translate(35,267)"/>
<path d="M0 0 C-2 2 -4 4 -6 6 C-6.33 4.02 -6.66 2.04 -7 0 C-3.86650268 -1.04449911 -3.01031744 -0.93423645 0 0 Z " fill="#3C3A3B" transform="translate(211,258)"/>
<path d="M0 0 C1.32 0.66 2.64 1.32 4 2 C3.67 3.65 3.34 5.3 3 7 C1.68 5.68 0.36 4.36 -1 3 C-0.67 2.01 -0.34 1.02 0 0 Z " fill="#2D2B2C" transform="translate(28,257)"/>
<path d="M0 0 C0.66 0.33 1.32 0.66 2 1 C2 2.32 2 3.64 2 5 C0.68 5.33 -0.64 5.66 -2 6 C-2.33 4.35 -2.66 2.7 -3 1 C-2.01 1.33 -1.02 1.66 0 2 C0 1.34 0 0.68 0 0 Z " fill="#363435" transform="translate(214,251)"/>
<path d="M0 0 C0.33 0.66 0.66 1.32 1 2 C0.22265625 3.9453125 0.22265625 3.9453125 -0.9375 6.125 C-1.31777344 6.84945312 -1.69804687 7.57390625 -2.08984375 8.3203125 C-2.39019531 8.87460938 -2.69054687 9.42890625 -3 10 C-3.66 8.68 -4.32 7.36 -5 6 C-4.01 5.67 -3.02 5.34 -2 5 C-1.33820153 3.01954441 -1.33820153 3.01954441 -1 1 C-0.67 0.67 -0.34 0.34 0 0 Z " fill="#3D3A3B" transform="translate(326,246)"/>
<path d="M0 0 C0.66 0 1.32 0 2 0 C2.66 1.32 3.32 2.64 4 4 C2.35 4.66 0.7 5.32 -1 6 C-1.33 5.01 -1.66 4.02 -2 3 C-1.34 2.01 -0.68 1.02 0 0 Z " fill="#333132" transform="translate(283,218)"/>
<path d="M0 0 C0.66 0.66 1.32 1.32 2 2 C1.67 2.99 1.34 3.98 1 5 C0.01 5.33 -0.98 5.66 -2 6 C-2.66 6.66 -3.32 7.32 -4 8 C-4 4.09161134 -2.49432124 2.88405893 0 0 Z " fill="#E7E7E7" transform="translate(197,192)"/>
<path d="M0 0 C4.875 4.75 4.875 4.75 6 7 C4.35 6.67 2.7 6.34 1 6 C0.67 4.02 0.34 2.04 0 0 Z " fill="#3E3B3C" transform="translate(566,175)"/>
<path d="M0 0 C0.33 0 0.66 0 1 0 C0.67 2.97 0.34 5.94 0 9 C-0.99 8.67 -1.98 8.34 -3 8 C-1.125 2.25 -1.125 2.25 0 0 Z " fill="#363535" transform="translate(183,156)"/>
<path d="M0 0 C0.33 0 0.66 0 1 0 C0.74438677 2.3431213 0.40729228 4.67843403 0 7 C-0.99 7.495 -0.99 7.495 -2 8 C-2.66 6.35 -3.32 4.7 -4 3 C-2.68 3 -1.36 3 0 3 C0 2.01 0 1.02 0 0 Z " fill="#322E2F" transform="translate(286,574)"/>
<path d="M0 0 C1.32 0.66 2.64 1.32 4 2 C3.67 2.99 3.34 3.98 3 5 C0.03 4.505 0.03 4.505 -3 4 C-2.01 2.68 -1.02 1.36 0 0 Z " fill="#343233" transform="translate(276,523)"/>
<path d="M0 0 C1.65 1.65 3.3 3.3 5 5 C4.01 5.99 3.02 6.98 2 8 C0.23537317 4.91190305 0 3.76687864 0 0 Z " fill="#2D2B2C" transform="translate(361,472)"/>
<path d="M0 0 C0.33 0.99 0.66 1.98 1 3 C1.66 3 2.32 3 3 3 C2.34 4.98 1.68 6.96 1 9 C0.34 8.34 -0.32 7.68 -1 7 C-0.625 3.375 -0.625 3.375 0 0 Z " fill="#332E2F" transform="translate(374,456)"/>
<path d="M0 0 C0.99 0.33 1.98 0.66 3 1 C1.02 3.97 1.02 3.97 -1 7 C-1.66 6.34 -2.32 5.68 -3 5 C-2.01 3.35 -1.02 1.7 0 0 Z " fill="#201E1F" transform="translate(292,442)"/>
<path d="M0 0 C0.77321882 2.98241547 1.41196203 5.97580475 2 9 C0.35 7.35 -1.3 5.7 -3 4 C-2.34 3.67 -1.68 3.34 -1 3 C-0.67 2.01 -0.34 1.02 0 0 Z " fill="#333232" transform="translate(334,379)"/>
<path d="M0 0 C0.66 1.32 1.32 2.64 2 4 C0.68 5.32 -0.64 6.64 -2 8 C-2.66 7.67 -3.32 7.34 -4 7 C-3.39816251 4.97954558 -2.72693904 2.97888961 -2 1 C-1.34 0.67 -0.68 0.34 0 0 Z " fill="#363233" transform="translate(358,319)"/>
<path d="M0 0 C2.375 0.3125 2.375 0.3125 5 1 C5.66 1.99 6.32 2.98 7 4 C5.68 3.67 4.36 3.34 3 3 C3 3.66 3 4.32 3 5 C2.34 4.67 1.68 4.34 1 4 C0.375 1.9375 0.375 1.9375 0 0 Z " fill="#E7E6E6" transform="translate(147,267)"/>
<path d="M0 0 C-0.99 1.485 -0.99 1.485 -2 3 C-4.64 2.67 -7.28 2.34 -10 2 C-10 1.67 -10 1.34 -10 1 C-8.71073008 0.63720544 -7.41846728 0.28503302 -6.125 -0.0625 C-5.40570313 -0.25972656 -4.68640625 -0.45695312 -3.9453125 -0.66015625 C-2 -1 -2 -1 0 0 Z " fill="#3B393A" transform="translate(112,264)"/>
<path d="M0 0 C0.78375 0.04125 1.5675 0.0825 2.375 0.125 C1.385 0.455 0.395 0.785 -0.625 1.125 C-0.955 2.775 -1.285 4.425 -1.625 6.125 C-2.285 6.125 -2.945 6.125 -3.625 6.125 C-4.25 4.25 -4.25 4.25 -4.625 2.125 C-2.625 0.125 -2.625 0.125 0 0 Z " fill="#3F3F3F" transform="translate(448.625,215.875)"/>
<path d="M0 0 C0.66 0.33 1.32 0.66 2 1 C2 1.99 2 2.98 2 4 C-4.625 4.25 -4.625 4.25 -8 2 C-5.69 2.33 -3.38 2.66 -1 3 C-0.67 2.01 -0.34 1.02 0 0 Z " fill="#DDDBDC" transform="translate(490,209)"/>
<path d="M0 0 C-2.3125 2.0625 -2.3125 2.0625 -5 4 C-5.99 3.67 -6.98 3.34 -8 3 C-8.33 2.34 -8.66 1.68 -9 1 C-2.25 -1.125 -2.25 -1.125 0 0 Z " fill="#363334" transform="translate(114,209)"/>
<path d="M0 0 C0.66 0 1.32 0 2 0 C2 0.66 2 1.32 2 2 C1.01 2.495 1.01 2.495 0 3 C-1.13350534 5.01669827 -1.13350534 5.01669827 -2 7 C-2.99 6.67 -3.98 6.34 -5 6 C-3.38405168 3.95880212 -1.7143618 1.95927063 0 0 Z " fill="#423F40" transform="translate(42,199)"/>
<path d="M0 0 C0.33 0.66 0.66 1.32 1 2 C1.99 2 2.98 2 4 2 C4 2.66 4 3.32 4 4 C3.01 4.33 2.02 4.66 1 5 C0.34 5.66 -0.32 6.32 -1 7 C-2 4 -2 4 -1.0625 1.8125 C-0.5365625 0.9153125 -0.5365625 0.9153125 0 0 Z " fill="#322F30" transform="translate(312,196)"/>
<path d="M0 0 C0.66 0 1.32 0 2 0 C2 0.66 2 1.32 2 2 C2.66 2 3.32 2 4 2 C3.67 3.65 3.34 5.3 3 7 C1.68 5.68 0.36 4.36 -1 3 C-0.67 2.01 -0.34 1.02 0 0 Z " fill="#2F2D2E" transform="translate(555,192)"/>
<path d="M0 0 C2.97 0.495 2.97 0.495 6 1 C5.67 2.65 5.34 4.3 5 6 C3.31237149 4.3545622 1.6459651 2.68711423 0 1 C0 0.67 0 0.34 0 0 Z " fill="#2F2E2E" transform="translate(385,190)"/>
<path d="M0 0 C2 1 2 1 4 4 C2.25 4.6875 2.25 4.6875 0 5 C-2.25 3.5625 -2.25 3.5625 -4 2 C-2.125 0.9375 -2.125 0.9375 0 0 Z " fill="#F1F1F1" transform="translate(275,154)"/>
<path d="M0 0 C1.98 0.495 1.98 0.495 4 1 C3.34 2.65 2.68 4.3 2 6 C1.34 6 0.68 6 0 6 C-1.125 2.25 -1.125 2.25 0 0 Z " fill="#1C1A1B" transform="translate(204,129)"/>
<path d="M0 0 C2.0625 0.4375 2.0625 0.4375 4 1 C2.35 2.65 0.7 4.3 -1 6 C-1.042721 4.33388095 -1.04063832 2.66617115 -1 1 C-0.67 0.67 -0.34 0.34 0 0 Z " fill="#2E2D2E" transform="translate(400,55)"/>
<path d="M0 0 C2.125 0.9375 2.125 0.9375 4 2 C3 3 3 3 0.93359375 3.09765625 C0.10988281 3.08605469 -0.71382813 3.07445312 -1.5625 3.0625 C-2.38878906 3.05347656 -3.21507812 3.04445313 -4.06640625 3.03515625 C-4.70449219 3.02355469 -5.34257812 3.01195312 -6 3 C-4 2 -2 1 0 0 Z " fill="#302C2E" transform="translate(328,609)"/>
<path d="M0 0 C0.99 0.99 1.98 1.98 3 3 C2.01 3.495 2.01 3.495 1 4 C1 4.66 1 5.32 1 6 C0.34 6 -0.32 6 -1 6 C-1.042721 4.33388095 -1.04063832 2.66617115 -1 1 C-0.67 0.67 -0.34 0.34 0 0 Z M-2 6 C-1.67 6.66 -1.34 7.32 -1 8 C-1.99 7.67 -2.98 7.34 -4 7 C-3.34 6.67 -2.68 6.34 -2 6 Z " fill="#312C2E" transform="translate(230,327)"/>
<path d="M0 0 C1.65 0.99 3.3 1.98 5 3 C4.67 4.32 4.34 5.64 4 7 C0 2.25 0 2.25 0 0 Z " fill="#302D2E" transform="translate(224,198)"/>
<path d="M0 0 C0.33 0.66 0.66 1.32 1 2 C0.67 2.66 0.34 3.32 0 4 C-0.66 3.67 -1.32 3.34 -2 3 C-1.34 2.01 -0.68 1.02 0 0 Z M-3 4 C-2.34 5.32 -1.68 6.64 -1 8 C-1.99 8.66 -2.98 9.32 -4 10 C-4.042721 8.33388095 -4.04063832 6.66617115 -4 5 C-3.67 4.67 -3.34 4.34 -3 4 Z " fill="#1D1A1B" transform="translate(358,196)"/>
<path d="M0 0 C0.66 0.99 1.32 1.98 2 3 C-0.97 5.475 -0.97 5.475 -4 8 C-4.66 7.67 -5.32 7.34 -6 7 C-4.02 4.69 -2.04 2.38 0 0 Z " fill="#D9D9D9" transform="translate(390,69)"/>
</svg>
