<?xml version="1.0" encoding="UTF-8" standalone="no"?>
<!-- Created with Inkscape (http://www.inkscape.org/) -->

<svg
   width="48"
   height="48"
   viewBox="0 0 48 48"
   version="1.1"
   id="svg1"
   xml:space="preserve"
   xmlns="http://www.w3.org/2000/svg"
   xmlns:svg="http://www.w3.org/2000/svg"><defs
     id="defs1" /><ellipse
     style="fill:#ffffff;fill-opacity:0.997712;stroke:#000000;stroke-width:1.184"
     id="path2"
     cy="24.226221"
     cx="24"
     rx="23"
     ry="22" /><g
     id="layer1" /><path
     style="fill:#000000;stroke-width:0.227838"
     d="m 38.23497,38.806088 c 0.102249,-0.05954 0.405022,-0.305874 0.672823,-0.547402 0.559021,-0.504162 0.603373,-0.668651 0.279903,-1.038017 -0.113867,-0.13002 -0.207024,-0.308618 -0.207024,-0.396889 0,-0.08827 0.09316,-0.278925 0.207024,-0.423681 0.113861,-0.144757 0.207025,-0.311485 0.207025,-0.370511 0,-0.05902 -0.106116,-0.603758 -0.235807,-1.21052 -0.129692,-0.606764 -0.320133,-1.501828 -0.423201,-1.989035 -0.103074,-0.487208 -0.210335,-1.232459 -0.238358,-1.656118 -0.028,-0.423658 -0.09789,-0.891606 -0.155256,-1.039887 -0.103989,-0.268819 -0.327728,-0.576179 -0.456876,-0.627627 -0.122299,-0.04872 -1.243652,-2.267326 -1.3317,-2.634767 -0.0754,-0.314676 -0.06313,-0.509878 0.101105,-1.609744 0.371477,-2.487666 0.190625,-3.699047 -0.794142,-5.319523 l -0.271968,-0.447532 0.264157,0.04954 c 1.499359,0.281167 2.237381,1.564207 2.435928,4.23479 0.13272,1.7852 0.232622,2.333986 0.552768,3.036473 0.279596,0.613501 0.620321,1.020833 1.085335,1.29749 0.631822,0.375895 2.019144,0.748221 2.118608,0.568584 0.02453,-0.04431 -0.09152,-0.472253 -0.257885,-0.950982 -0.38719,-1.114146 -0.549837,-1.813795 -0.771083,-3.31692 -0.274304,-1.86355 -0.636466,-2.926251 -1.363577,-4.001147 -0.980548,-1.449554 -2.543358,-2.148387 -4.29022,-1.918424 l -0.641359,0.08443 -0.465341,-0.341162 c -0.979121,-0.717833 -2.002162,-1.042682 -3.465294,-1.100343 -1.293839,-0.05099 -1.843251,0.02119 -4.334846,0.569475 -2.909361,0.64022 -3.901774,0.643717 -5.020334,0.01769 C 20.633259,17.275405 19.93582,16.54291 18.802765,14.959383 17.783963,13.535532 17.531475,13.218715 16.956348,12.642538 15.74821,11.432181 14.789158,10.735915 12.97709,9.7536194 11.701784,9.0622968 10.885414,8.5171318 10.742221,8.2611968 10.649496,8.0954584 10.51516,8.0556697 10.449386,8.1744622 c -0.02152,0.038851 0.0073,0.2901575 0.06391,0.5584579 0.05665,0.2683009 0.103486,0.5458399 0.104042,0.6167531 6.48e-4,0.073281 -0.304453,0.3921619 -0.7067015,0.7387738 -0.389244,0.335412 -0.8342344,0.797336 -0.9888683,1.026497 -0.1546338,0.229161 -0.5467233,0.81528 -0.8713178,1.302486 -0.5383896,0.808121 -0.960583,1.312759 -1.6518338,1.974408 -0.5351777,0.512261 -0.5777169,0.847481 -0.1933987,1.523929 0.2449848,0.431201 0.4531018,0.550055 1.0801088,0.616855 0.4864241,0.05182 0.5015022,0.04805 0.7142244,-0.178871 0.1537836,-0.164047 0.3111192,-0.245045 0.5382065,-0.277084 0.6725224,-0.09488 1.7859794,-0.430683 2.1678704,-0.653796 0.465152,-0.271753 0.754004,-0.294728 0.950333,-0.07558 0.138843,0.154986 1.102075,2.308336 1.56652,3.502039 0.395249,1.015855 0.495039,1.401144 0.677252,2.614952 0.323188,2.152858 0.653375,3.41322 1.070584,4.086544 0.105004,0.169463 0.483147,0.66235 0.840318,1.095304 0.699676,0.848128 0.910822,1.250896 1.370053,2.613429 0.755482,2.241505 1.329706,5.068122 1.335619,6.574596 0.0039,0.998682 -0.09728,1.330759 -0.528316,1.733666 -0.313631,0.293166 -0.467833,0.57323 -0.468369,0.850646 -6.48e-4,0.390271 0.07776,0.419808 1.116067,0.419808 h 0.950908 l 0.139419,-0.305047 c 0.176397,-0.385942 0.174716,-0.481802 -0.01485,-0.849465 l -0.154267,-0.299201 0.301869,-0.31108 0.301876,-0.311078 -0.04167,-0.483382 c -0.02289,-0.26586 -0.07667,-0.760684 -0.119447,-1.099611 -0.05927,-0.469394 -0.05691,-0.924725 0.0098,-1.910915 0.07254,-1.072112 0.07105,-1.588561 -0.0087,-3.004119 -0.05299,-0.940187 -0.09729,-1.900078 -0.09851,-2.133089 l -0.002,-0.423658 2.208258,-5.54e-4 c 2.504653,-6.26e-4 2.350117,0.02315 5.477721,-0.842722 2.40581,-0.666049 3.575393,-0.797263 4.15001,-0.46558 0.228552,0.131927 0.481269,0.528595 0.481688,0.756066 6.47e-4,0.373306 0.409136,1.423812 0.940939,2.420018 0.870827,1.631304 1.223203,2.604124 1.406908,3.884137 0.09605,0.669198 0.05763,2.329599 -0.06417,2.770669 -0.04252,0.153983 -0.326721,0.70726 -0.631586,1.229503 -0.435002,0.745165 -0.549883,0.999905 -0.533765,1.183574 l 0.02054,0.234043 0.889314,0.02163 c 0.738238,0.01796 0.910102,7.32e-4 1.011665,-0.101957 0.197984,-0.199993 0.215856,-0.457462 0.06201,-0.893204 -0.185254,-0.524606 -0.139582,-0.709688 0.214109,-0.867653 0.207941,-0.09288 0.307332,-0.196714 0.383789,-0.400987 0.127336,-0.340173 0.131084,-0.547799 0.06515,-3.61201 l -0.05305,-2.464919 -0.274846,-0.525839 c -0.151161,-0.289212 -0.263818,-0.53814 -0.250349,-0.553174 0.01347,-0.01503 0.303511,0.421274 0.644545,0.969573 0.341026,0.548299 0.736701,1.160817 0.879265,1.36115 0.494601,0.694999 0.876983,2.09137 0.989771,3.614393 0.04252,0.57448 0.03003,0.67551 -0.142793,1.15543 -0.316765,0.879516 -0.301418,1.809356 0.03611,2.186086 0.159932,0.178524 0.18339,0.180782 0.423796,0.04078 z"
     id="path4" /></svg>
